<?xml version="1.0" encoding="utf-8" standalone="no"?>
<!DOCTYPE svg PUBLIC "-//W3C//DTD SVG 1.1//EN"
  "http://www.w3.org/Graphics/SVG/1.1/DTD/svg11.dtd">
<svg xmlns:xlink="http://www.w3.org/1999/xlink" width="452.557571pt" height="332.480603pt" viewBox="0 0 452.557571 332.480603" xmlns="http://www.w3.org/2000/svg" version="1.1">
 <metadata>
  <rdf:RDF xmlns:dc="http://purl.org/dc/elements/1.1/" xmlns:cc="http://creativecommons.org/ns#" xmlns:rdf="http://www.w3.org/1999/02/22-rdf-syntax-ns#">
   <cc:Work>
    <dc:type rdf:resource="http://purl.org/dc/dcmitype/StillImage"/>
    <dc:date>2023-07-07T16:18:15.374753</dc:date>
    <dc:format>image/svg+xml</dc:format>
    <dc:creator>
     <cc:Agent>
      <dc:title>Matplotlib v3.6.2, https://matplotlib.org/</dc:title>
     </cc:Agent>
    </dc:creator>
   </cc:Work>
  </rdf:RDF>
 </metadata>
 <defs>
  <style type="text/css">*{stroke-linejoin: round; stroke-linecap: butt}</style>
 </defs>
 <g id="figure_1">
  <g id="patch_1">
   <path d="M 0 332.480603 
L 452.557571 332.480603 
L 452.557571 0 
L 0 0 
z
" style="fill: #ffffff"/>
  </g>
  <g id="axes_1">
   <g id="patch_2">
    <path d="M 36.521849 321.814215 
L 422.785723 321.814215 
L 422.785723 10.666388 
L 36.521849 10.666388 
z
" style="fill: #ffffff"/>
   </g>
   <g id="PathCollection_1">
    <path d="M 371.662563 21.65 
C 372.988578 21.65 374.260462 21.123168 375.198097 20.185534 
C 376.135731 19.247899 376.662563 17.976015 376.662563 16.65 
C 376.662563 15.323984 376.135731 14.052101 375.198097 13.114466 
C 374.260462 12.176832 372.988578 11.65 371.662563 11.65 
C 370.336547 11.65 369.064664 12.176832 368.127029 13.114466 
C 367.189395 14.052101 366.662563 15.323984 366.662563 16.65 
C 366.662563 17.976015 367.189395 19.247899 368.127029 20.185534 
C 369.064664 21.123168 370.336547 21.65 371.662563 21.65 
z
" clip-path="url(#p3b0349056c)" style="fill: #0000ff"/>
   </g>
   <g id="PathCollection_2">
    <path d="M 43.95 293.632366 
C 45.276015 293.632366 46.547899 293.105535 47.485534 292.1679 
C 48.423168 291.230266 48.95 289.958382 48.95 288.632366 
C 48.95 287.306351 48.423168 286.034467 47.485534 285.096832 
C 46.547899 284.159198 45.276015 283.632366 43.95 283.632366 
C 42.623985 283.632366 41.352101 284.159198 40.414466 285.096832 
C 39.476832 286.034467 38.95 287.306351 38.95 288.632366 
C 38.95 289.958382 39.476832 291.230266 40.414466 292.1679 
C 41.352101 293.105535 42.623985 293.632366 43.95 293.632366 
z
" clip-path="url(#p3b0349056c)" style="fill: #0000ff"/>
   </g>
   <g id="PathCollection_3">
    <path d="M 262.425042 21.65 
C 263.751057 21.65 265.022941 21.123168 265.960576 20.185534 
C 266.89821 19.247899 267.425042 17.976015 267.425042 16.65 
C 267.425042 15.323984 266.89821 14.052101 265.960576 13.114466 
C 265.022941 12.176832 263.751057 11.65 262.425042 11.65 
C 261.099026 11.65 259.827143 12.176832 258.889508 13.114466 
C 257.951874 14.052101 257.425042 15.323984 257.425042 16.65 
C 257.425042 17.976015 257.951874 19.247899 258.889508 20.185534 
C 259.827143 21.123168 261.099026 21.65 262.425042 21.65 
z
" clip-path="url(#p3b0349056c)" style="fill: #0000ff"/>
   </g>
   <g id="PathCollection_4">
    <path d="M 153.187521 293.632366 
C 154.513536 293.632366 155.78542 293.105535 156.723055 292.1679 
C 157.660689 291.230266 158.187521 289.958382 158.187521 288.632366 
C 158.187521 287.306351 157.660689 286.034467 156.723055 285.096832 
C 155.78542 284.159198 154.513536 283.632366 153.187521 283.632366 
C 151.861505 283.632366 150.589622 284.159198 149.651987 285.096832 
C 148.714353 286.034467 148.187521 287.306351 148.187521 288.632366 
C 148.187521 289.958382 148.714353 291.230266 149.651987 292.1679 
C 150.589622 293.105535 151.861505 293.632366 153.187521 293.632366 
z
" clip-path="url(#p3b0349056c)" style="fill: #0000ff"/>
   </g>
   <g id="matplotlib.axis_1"/>
   <g id="matplotlib.axis_2"/>
   <g id="patch_3">
    <path d="M 153.187521 288.632366 
Q 262.425042 152.641183 370.26223 18.393292 
" clip-path="url(#p3b0349056c)" style="fill: none; stroke: #ff0000; stroke-width: 2; stroke-linecap: round"/>
    <path d="M 360.101631 23.058293 
L 370.26223 18.393292 
L 367.897871 29.320772 
L 360.101631 23.058293 
z
" clip-path="url(#p3b0349056c)" style="fill: #ff0000; stroke: #ff0000; stroke-width: 2; stroke-linecap: round"/>
   </g>
   <g id="patch_4">
    <path d="M 43.95 288.632366 
Q 153.187521 152.641183 261.024709 18.393292 
" clip-path="url(#p3b0349056c)" style="fill: none; stroke: #ff0000; stroke-width: 2; stroke-linecap: round"/>
    <path d="M 250.86411 23.058293 
L 261.024709 18.393292 
L 258.66035 29.320772 
L 250.86411 23.058293 
z
" clip-path="url(#p3b0349056c)" style="fill: #ff0000; stroke: #ff0000; stroke-width: 2; stroke-linecap: round"/>
   </g>
   <g id="patch_5">
    <path d="M 153.187521 321.814215 
L 153.187521 10.666388 
" style="fill: none; stroke: #000000; stroke-width: 0.8; stroke-linejoin: miter; stroke-linecap: square"/>
   </g>
   <g id="patch_6">
    <path d="M 36.521849 288.632366 
L 422.785723 288.632366 
" style="fill: none; stroke: #000000; stroke-width: 0.8; stroke-linejoin: miter; stroke-linecap: square"/>
   </g>
   <g id="text_1">
    <!-- $P=(1,2)$ -->
    <g transform="translate(385.357571 20.4) scale(0.15 -0.15)">
     <defs>
      <path id="Cmmi10-50" d="M 313 0 
Q 250 0 250 84 
Q 253 100 262 139 
Q 272 178 289 201 
Q 306 225 331 225 
Q 722 225 878 269 
Q 959 297 997 441 
L 1875 3956 
Q 1888 4019 1888 4044 
Q 1888 4113 1813 4122 
Q 1691 4147 1350 4147 
Q 1288 4147 1288 4231 
Q 1291 4247 1300 4286 
Q 1309 4325 1326 4348 
Q 1344 4372 1369 4372 
L 3578 4372 
Q 3881 4372 4165 4264 
Q 4450 4156 4631 3934 
Q 4813 3713 4813 3397 
Q 4813 2991 4527 2672 
Q 4241 2353 3814 2175 
Q 3388 1997 2988 1997 
L 1947 1997 
L 1556 416 
Q 1544 353 1544 325 
Q 1544 300 1551 283 
Q 1559 266 1573 261 
Q 1588 256 1619 250 
Q 1741 225 2081 225 
Q 2144 225 2144 141 
Q 2122 50 2109 25 
Q 2097 0 2034 0 
L 313 0 
z
M 1978 2188 
L 2875 2188 
Q 3497 2188 3822 2522 
Q 3988 2688 4092 3000 
Q 4197 3313 4197 3566 
Q 4197 3881 3956 4014 
Q 3716 4147 3359 4147 
L 2747 4147 
Q 2572 4147 2515 4117 
Q 2459 4088 2413 3928 
L 1978 2188 
z
" transform="scale(0.015625)"/>
      <path id="Cmr10-3d" d="M 481 850 
Q 428 850 393 890 
Q 359 931 359 978 
Q 359 1031 393 1068 
Q 428 1106 481 1106 
L 4500 1106 
Q 4547 1106 4581 1068 
Q 4616 1031 4616 978 
Q 4616 931 4581 890 
Q 4547 850 4500 850 
L 481 850 
z
M 481 2094 
Q 428 2094 393 2131 
Q 359 2169 359 2222 
Q 359 2269 393 2309 
Q 428 2350 481 2350 
L 4500 2350 
Q 4547 2350 4581 2309 
Q 4616 2269 4616 2222 
Q 4616 2169 4581 2131 
Q 4547 2094 4500 2094 
L 481 2094 
z
" transform="scale(0.015625)"/>
      <path id="Cmr10-28" d="M 1984 -1588 
Q 1628 -1306 1370 -942 
Q 1113 -578 948 -165 
Q 784 247 703 697 
Q 622 1147 622 1600 
Q 622 2059 703 2509 
Q 784 2959 951 3375 
Q 1119 3791 1378 4153 
Q 1638 4516 1984 4788 
Q 1984 4800 2016 4800 
L 2075 4800 
Q 2094 4800 2109 4783 
Q 2125 4766 2125 4744 
Q 2125 4716 2113 4703 
Q 1800 4397 1592 4047 
Q 1384 3697 1257 3301 
Q 1131 2906 1075 2482 
Q 1019 2059 1019 1600 
Q 1019 -434 2106 -1491 
Q 2125 -1509 2125 -1544 
Q 2125 -1559 2108 -1579 
Q 2091 -1600 2075 -1600 
L 2016 -1600 
Q 1984 -1600 1984 -1588 
z
" transform="scale(0.015625)"/>
      <path id="Cmr10-31" d="M 594 0 
L 594 225 
Q 1394 225 1394 428 
L 1394 3788 
Q 1063 3628 556 3628 
L 556 3853 
Q 1341 3853 1741 4263 
L 1831 4263 
Q 1853 4263 1873 4245 
Q 1894 4228 1894 4206 
L 1894 428 
Q 1894 225 2694 225 
L 2694 0 
L 594 0 
z
" transform="scale(0.015625)"/>
      <path id="Cmmi10-3b" d="M 634 -1153 
Q 634 -1125 659 -1100 
Q 891 -878 1019 -587 
Q 1147 -297 1147 25 
L 1147 103 
Q 1044 0 891 0 
Q 744 0 641 103 
Q 538 206 538 353 
Q 538 503 641 603 
Q 744 703 891 703 
Q 1119 703 1216 492 
Q 1313 281 1313 25 
Q 1313 -331 1170 -651 
Q 1028 -972 769 -1228 
Q 744 -1241 728 -1241 
Q 697 -1241 665 -1212 
Q 634 -1184 634 -1153 
z
" transform="scale(0.015625)"/>
      <path id="Cmr10-32" d="M 319 0 
L 319 172 
Q 319 188 331 206 
L 1325 1306 
Q 1550 1550 1690 1715 
Q 1831 1881 1968 2097 
Q 2106 2313 2186 2536 
Q 2266 2759 2266 3009 
Q 2266 3272 2169 3511 
Q 2072 3750 1880 3894 
Q 1688 4038 1416 4038 
Q 1138 4038 916 3870 
Q 694 3703 603 3438 
Q 628 3444 672 3444 
Q 816 3444 917 3347 
Q 1019 3250 1019 3097 
Q 1019 2950 917 2848 
Q 816 2747 672 2747 
Q 522 2747 420 2851 
Q 319 2956 319 3097 
Q 319 3338 409 3548 
Q 500 3759 670 3923 
Q 841 4088 1055 4175 
Q 1269 4263 1509 4263 
Q 1875 4263 2190 4108 
Q 2506 3953 2690 3670 
Q 2875 3388 2875 3009 
Q 2875 2731 2753 2481 
Q 2631 2231 2440 2026 
Q 2250 1822 1953 1562 
Q 1656 1303 1563 1216 
L 838 519 
L 1453 519 
Q 1906 519 2211 526 
Q 2516 534 2534 550 
Q 2609 631 2688 1141 
L 2875 1141 
L 2694 0 
L 319 0 
z
" transform="scale(0.015625)"/>
      <path id="Cmr10-29" d="M 416 -1600 
Q 359 -1600 359 -1544 
Q 359 -1516 372 -1503 
Q 1466 -434 1466 1600 
Q 1466 3634 384 4691 
Q 359 4706 359 4744 
Q 359 4766 376 4783 
Q 394 4800 416 4800 
L 475 4800 
Q 494 4800 506 4788 
Q 966 4425 1272 3906 
Q 1578 3388 1720 2800 
Q 1863 2213 1863 1600 
Q 1863 1147 1786 708 
Q 1709 269 1542 -157 
Q 1375 -584 1119 -945 
Q 863 -1306 506 -1588 
Q 494 -1600 475 -1600 
L 416 -1600 
z
" transform="scale(0.015625)"/>
     </defs>
     <use xlink:href="#Cmmi10-50"/>
     <use xlink:href="#Cmr10-3d" transform="translate(81.767578 0)"/>
     <use xlink:href="#Cmr10-28" transform="translate(177.011719 0)"/>
     <use xlink:href="#Cmr10-31" transform="translate(215.830078 0)"/>
     <use xlink:href="#Cmmi10-3b" transform="translate(265.830078 0)"/>
     <use xlink:href="#Cmr10-32" transform="translate(311.074219 0)"/>
     <use xlink:href="#Cmr10-29" transform="translate(361.074219 0)"/>
    </g>
   </g>
   <g id="text_2">
    <!-- $\overrightarrow{OP}=(1,2)$ -->
    <g transform="translate(270.34505 160.966183) scale(0.15 -0.15)">
     <defs>
      <path id="Cmsy10-21" d="M 481 1472 
Q 428 1472 393 1512 
Q 359 1553 359 1600 
Q 359 1647 393 1687 
Q 428 1728 481 1728 
L 5338 1728 
Q 5094 1903 4906 2133 
Q 4719 2363 4594 2627 
Q 4469 2891 4416 3188 
Q 4416 3272 4481 3272 
L 4609 3272 
Q 4631 3272 4648 3253 
Q 4666 3234 4672 3213 
Q 4725 2938 4839 2702 
Q 4953 2466 5125 2262 
Q 5297 2059 5509 1912 
Q 5722 1766 5991 1672 
Q 6034 1644 6034 1600 
Q 6034 1550 5991 1538 
Q 5656 1422 5378 1192 
Q 5100 963 4919 652 
Q 4738 341 4672 -13 
Q 4666 -34 4647 -53 
Q 4628 -72 4609 -72 
L 4481 -72 
Q 4416 -72 4416 13 
Q 4497 450 4740 836 
Q 4984 1222 5338 1472 
L 481 1472 
z
" transform="scale(0.015625)"/>
      <path id="Cmmi10-4f" d="M 1947 -141 
Q 1466 -141 1094 79 
Q 722 300 520 692 
Q 319 1084 319 1563 
Q 319 2259 714 2950 
Q 1109 3641 1756 4077 
Q 2403 4513 3109 4513 
Q 3475 4513 3778 4381 
Q 4081 4250 4290 4017 
Q 4500 3784 4614 3471 
Q 4728 3159 4728 2791 
Q 4728 2263 4503 1739 
Q 4278 1216 3879 786 
Q 3481 356 2984 107 
Q 2488 -141 1947 -141 
z
M 1997 50 
Q 2463 50 2866 345 
Q 3269 641 3553 1108 
Q 3838 1575 3989 2089 
Q 4141 2603 4141 3047 
Q 4141 3394 4022 3683 
Q 3903 3972 3656 4148 
Q 3409 4325 3066 4325 
Q 2728 4325 2409 4162 
Q 2091 4000 1831 3731 
Q 1566 3459 1359 3057 
Q 1153 2656 1047 2214 
Q 941 1772 941 1381 
Q 941 838 1208 444 
Q 1475 50 1997 50 
z
" transform="scale(0.015625)"/>
     </defs>
     <use xlink:href="#Cmsy10-21" transform="translate(37.498047 84.875)"/>
     <use xlink:href="#Cmmi10-4f" transform="translate(0 0.734375)"/>
     <use xlink:href="#Cmmi10-50" transform="translate(76.220703 0.734375)"/>
     <use xlink:href="#Cmr10-3d" transform="translate(157.988281 0.734375)"/>
     <use xlink:href="#Cmr10-28" transform="translate(253.232422 0.734375)"/>
     <use xlink:href="#Cmr10-31" transform="translate(292.050781 0.734375)"/>
     <use xlink:href="#Cmmi10-3b" transform="translate(342.050781 0.734375)"/>
     <use xlink:href="#Cmr10-32" transform="translate(387.294922 0.734375)"/>
     <use xlink:href="#Cmr10-29" transform="translate(437.294922 0.734375)"/>
    </g>
   </g>
   <g id="text_3">
    <!-- $Q=(-\frac{1}{2},0)$ -->
    <g transform="translate(7.2 319.130603) scale(0.15 -0.15)">
     <defs>
      <path id="Cmmi10-51" d="M 1947 -141 
Q 1466 -141 1094 79 
Q 722 300 520 692 
Q 319 1084 319 1563 
Q 319 2259 714 2950 
Q 1109 3641 1756 4077 
Q 2403 4513 3109 4513 
Q 3475 4513 3778 4381 
Q 4081 4250 4290 4017 
Q 4500 3784 4614 3471 
Q 4728 3159 4728 2791 
Q 4728 2366 4581 1936 
Q 4434 1506 4171 1136 
Q 3909 766 3559 484 
Q 3209 203 2809 38 
Q 2850 -256 2934 -425 
Q 3019 -594 3256 -594 
Q 3506 -594 3726 -412 
Q 3947 -231 4006 13 
Q 4019 72 4078 72 
Q 4147 72 4147 -13 
Q 4100 -219 4008 -430 
Q 3916 -641 3786 -823 
Q 3656 -1006 3478 -1123 
Q 3300 -1241 3084 -1241 
Q 2547 -1241 2547 -550 
Q 2547 -509 2562 -332 
Q 2578 -156 2578 -44 
Q 2269 -141 1947 -141 
z
M 1709 300 
Q 1709 44 1991 44 
Q 2275 44 2591 184 
L 2591 244 
Q 2591 503 2509 648 
Q 2428 794 2194 794 
Q 2078 794 1964 723 
Q 1850 653 1779 539 
Q 1709 425 1709 300 
z
M 1544 288 
Q 1544 456 1637 612 
Q 1731 769 1881 864 
Q 2031 959 2203 959 
Q 2481 959 2607 771 
Q 2734 584 2778 281 
Q 3188 525 3500 978 
Q 3813 1431 3977 1973 
Q 4141 2516 4141 3003 
Q 4141 3356 4023 3656 
Q 3906 3956 3664 4140 
Q 3422 4325 3066 4325 
Q 2722 4325 2403 4156 
Q 2084 3988 1813 3706 
Q 1550 3434 1342 3032 
Q 1134 2631 1021 2193 
Q 909 1756 909 1356 
Q 909 947 1068 612 
Q 1228 278 1569 128 
Q 1544 194 1544 288 
z
" transform="scale(0.015625)"/>
      <path id="Cmsy10-a1" d="M 653 1472 
Q 600 1472 565 1512 
Q 531 1553 531 1600 
Q 531 1647 565 1687 
Q 600 1728 653 1728 
L 4325 1728 
Q 4375 1728 4408 1687 
Q 4441 1647 4441 1600 
Q 4441 1553 4408 1512 
Q 4375 1472 4325 1472 
L 653 1472 
z
" transform="scale(0.015625)"/>
      <path id="Cmr10-30" d="M 1600 -141 
Q 816 -141 533 504 
Q 250 1150 250 2041 
Q 250 2597 351 3087 
Q 453 3578 754 3920 
Q 1056 4263 1600 4263 
Q 2022 4263 2290 4056 
Q 2559 3850 2700 3523 
Q 2841 3197 2892 2823 
Q 2944 2450 2944 2041 
Q 2944 1491 2842 1011 
Q 2741 531 2444 195 
Q 2147 -141 1600 -141 
z
M 1600 25 
Q 1956 25 2131 390 
Q 2306 756 2347 1200 
Q 2388 1644 2388 2144 
Q 2388 2625 2347 3031 
Q 2306 3438 2132 3767 
Q 1959 4097 1600 4097 
Q 1238 4097 1063 3765 
Q 888 3434 847 3029 
Q 806 2625 806 2144 
Q 806 1788 823 1472 
Q 841 1156 916 820 
Q 991 484 1158 254 
Q 1325 25 1600 25 
z
" transform="scale(0.015625)"/>
     </defs>
     <use xlink:href="#Cmmi10-51" transform="translate(0 0.873437)"/>
     <use xlink:href="#Cmr10-3d" transform="translate(96.5625 0.873437)"/>
     <use xlink:href="#Cmr10-28" transform="translate(191.806641 0.873437)"/>
     <use xlink:href="#Cmsy10-a1" transform="translate(230.625 0.873437)"/>
     <use xlink:href="#Cmr10-31" transform="translate(308.310547 38.373438) scale(0.7)"/>
     <use xlink:href="#Cmr10-32" transform="translate(308.310547 -39.503125) scale(0.7)"/>
     <use xlink:href="#Cmmi10-3b" transform="translate(355.810547 0.873437)"/>
     <use xlink:href="#Cmr10-30" transform="translate(401.054688 0.873437)"/>
     <use xlink:href="#Cmr10-29" transform="translate(451.054688 0.873437)"/>
     <path d="M 308.310547 13.373437 
L 308.310547 19.623437 
L 343.310547 19.623437 
L 343.310547 13.373437 
L 308.310547 13.373437 
z
"/>
    </g>
   </g>
   <g id="text_4">
    <!-- $\overrightarrow{QR}=(1,2)$ -->
    <g transform="translate(160.057529 160.966183) scale(0.15 -0.15)">
     <defs>
      <path id="Cmmi10-52" d="M 313 0 
Q 250 0 250 84 
Q 253 100 262 139 
Q 272 178 289 201 
Q 306 225 331 225 
Q 722 225 878 269 
Q 959 297 997 441 
L 1875 3956 
Q 1888 4019 1888 4044 
Q 1888 4113 1813 4122 
Q 1691 4147 1350 4147 
Q 1288 4147 1288 4231 
Q 1291 4247 1300 4286 
Q 1309 4325 1326 4348 
Q 1344 4372 1369 4372 
L 3309 4372 
Q 3541 4372 3791 4319 
Q 4041 4266 4250 4152 
Q 4459 4038 4593 3848 
Q 4728 3659 4728 3406 
Q 4728 3084 4515 2831 
Q 4303 2578 3978 2408 
Q 3653 2238 3347 2169 
Q 3597 2078 3756 1879 
Q 3916 1681 3916 1422 
Q 3916 1388 3914 1370 
Q 3913 1353 3909 1331 
L 3859 763 
Q 3853 638 3847 550 
Q 3841 463 3841 409 
Q 3841 234 3892 129 
Q 3944 25 4097 25 
Q 4297 25 4448 211 
Q 4600 397 4647 616 
Q 4675 672 4709 672 
L 4769 672 
Q 4831 672 4831 588 
Q 4784 403 4682 237 
Q 4581 72 4426 -34 
Q 4272 -141 4091 -141 
Q 3716 -141 3452 26 
Q 3188 194 3188 550 
Q 3188 684 3213 788 
L 3353 1356 
Q 3378 1434 3378 1538 
Q 3378 1803 3198 1954 
Q 3019 2106 2747 2106 
L 1959 2106 
L 1538 416 
Q 1522 363 1522 325 
Q 1522 259 1600 250 
Q 1722 225 2059 225 
Q 2125 225 2125 141 
Q 2103 50 2090 25 
Q 2078 0 2016 0 
L 313 0 
z
M 1997 2272 
L 2706 2272 
Q 3403 2272 3756 2625 
Q 3919 2788 4014 3039 
Q 4109 3291 4109 3541 
Q 4109 3778 3970 3912 
Q 3831 4047 3626 4097 
Q 3422 4147 3175 4147 
L 2747 4147 
Q 2572 4147 2515 4117 
Q 2459 4088 2413 3928 
L 1997 2272 
z
" transform="scale(0.015625)"/>
     </defs>
     <use xlink:href="#Cmsy10-21" transform="translate(47.111328 84.875)"/>
     <use xlink:href="#Cmmi10-51" transform="translate(0 0.734375)"/>
     <use xlink:href="#Cmmi10-52" transform="translate(79.003906 0.734375)"/>
     <use xlink:href="#Cmr10-3d" transform="translate(172.441406 0.734375)"/>
     <use xlink:href="#Cmr10-28" transform="translate(267.685547 0.734375)"/>
     <use xlink:href="#Cmr10-31" transform="translate(306.503906 0.734375)"/>
     <use xlink:href="#Cmmi10-3b" transform="translate(356.503906 0.734375)"/>
     <use xlink:href="#Cmr10-32" transform="translate(401.748047 0.734375)"/>
     <use xlink:href="#Cmr10-29" transform="translate(451.748047 0.734375)"/>
    </g>
   </g>
   <g id="text_5">
    <!-- $R=\left(\frac{1}{2},2\right)$ -->
    <g transform="translate(274.09505 19.95) scale(0.15 -0.15)">
     <defs>
      <path id="Cmex10-a1" d="M 2503 -7406 
Q 1713 -6744 1342 -5734 
Q 972 -4725 972 -3584 
Q 972 -2434 1342 -1423 
Q 1713 -413 2503 244 
Q 2503 256 2534 256 
L 2613 256 
Q 2631 256 2647 236 
Q 2663 216 2663 197 
Q 2663 172 2650 159 
Q 2303 -200 2067 -640 
Q 1831 -1081 1695 -1554 
Q 1559 -2028 1500 -2543 
Q 1441 -3059 1441 -3591 
Q 1441 -6072 2650 -7322 
Q 2663 -7334 2663 -7359 
Q 2663 -7378 2645 -7398 
Q 2628 -7419 2613 -7419 
L 2534 -7419 
Q 2503 -7419 2503 -7406 
z
" transform="scale(0.015625)"/>
      <path id="Cmex10-a2" d="M 319 -7419 
Q 263 -7419 263 -7359 
Q 263 -7334 275 -7322 
Q 734 -6844 1001 -6236 
Q 1269 -5628 1376 -4961 
Q 1484 -4294 1484 -3578 
Q 1484 -1091 275 159 
Q 263 172 263 197 
Q 263 256 319 256 
L 397 256 
Q 416 256 428 244 
Q 1216 -413 1584 -1423 
Q 1953 -2434 1953 -3584 
Q 1953 -4725 1586 -5734 
Q 1219 -6744 428 -7406 
Q 416 -7419 397 -7419 
L 319 -7419 
z
" transform="scale(0.015625)"/>
     </defs>
     <use xlink:href="#Cmmi10-52" transform="translate(0 0.873437)"/>
     <use xlink:href="#Cmr10-3d" transform="translate(93.4375 0.873437)"/>
     <use xlink:href="#Cmex10-a1" transform="translate(188.681641 80.840625) scale(1.038202)"/>
     <use xlink:href="#Cmr10-31" transform="translate(236.228577 38.373438) scale(0.7)"/>
     <use xlink:href="#Cmr10-32" transform="translate(236.228577 -39.503125) scale(0.7)"/>
     <use xlink:href="#Cmmi10-3b" transform="translate(283.728577 0.873437)"/>
     <use xlink:href="#Cmr10-32" transform="translate(328.972717 0.873437)"/>
     <use xlink:href="#Cmex10-a2" transform="translate(378.972717 80.840625) scale(1.038202)"/>
     <path d="M 236.228577 13.373437 
L 236.228577 19.623437 
L 271.228577 19.623437 
L 271.228577 13.373437 
L 236.228577 13.373437 
z
"/>
    </g>
   </g>
   <g id="text_6">
    <!-- $O=(0,0)$ -->
    <g transform="translate(122.287521 319.580603) scale(0.15 -0.15)">
     <use xlink:href="#Cmmi10-4f"/>
     <use xlink:href="#Cmr10-3d" transform="translate(93.779297 0)"/>
     <use xlink:href="#Cmr10-28" transform="translate(189.023438 0)"/>
     <use xlink:href="#Cmr10-30" transform="translate(227.841797 0)"/>
     <use xlink:href="#Cmmi10-3b" transform="translate(277.841797 0)"/>
     <use xlink:href="#Cmr10-30" transform="translate(323.085938 0)"/>
     <use xlink:href="#Cmr10-29" transform="translate(373.085938 0)"/>
    </g>
   </g>
  </g>
 </g>
 <defs>
  <clipPath id="p3b0349056c">
   <rect x="36.521849" y="10.666388" width="386.263874" height="311.147827"/>
  </clipPath>
 </defs>
</svg>
