<svg xmlns="http://www.w3.org/2000/svg" xmlns:xlink="http://www.w3.org/1999/xlink" xmlns:inkscape="http://www.inkscape.org/namespaces/inkscape" version="1.1" width="177" height="195" viewBox="0 0 177 195">
<defs>
<path id="font_1_1" d="M.32598878-1.7597656H.394989V-.029937745H.6589966V.0390625H.32598878V-1.7597656Z"/>
<path id="font_1_5" d="M.32598878-.60058596H.394989V.0014343262H.32598878V-.60058596Z"/>
<path id="font_1_3" d="M.32598878-1.7587891H.6589966V-1.6898041H.394989V.040039064H.32598878V-1.7587891Z"/>
<path id="font_1_2" d="M.2709961-1.7597656H.33999635V.0390625H.0069885256V-.029937745H.2709961V-1.7597656Z"/>
<path id="font_1_6" d="M.2709961-.60058596H.33999635V.0014343262H.2709961V-.60058596Z"/>
<path id="font_1_4" d="M.2709961-1.6898041H.0069885256V-1.7587891H.33999635V.040039064H.2709961V-1.6898041Z"/>
<path id="font_2_2" d="M.28399659 .6252594C.28399659 .6452637 .269989 .6612549 .24699402 .6612549 .21998596 .6612549 .19299317 .6352539 .19299317 .6082611 .19299317 .5892639 .20698548 .5722656 .23098755 .5722656 .2539978 .5722656 .28399659 .5952606 .28399659 .6252594M.20799256 .24932862C.21998596 .27833558 .21998596 .28033448 .22999573 .30734254 .23799134 .3273468 .24299622 .34135438 .24299622 .36035157 .24299622 .405365 .21099854 .4423828 .16099549 .4423828 .066986087 .4423828 .0289917 .29733277 .0289917 .28833009 .0289917 .27833558 .038986207 .27833558 .040985109 .27833558 .050994874 .27833558 .051986696 .28033448 .056991579 .29634095 .083999637 .3903656 .12399292 .42037965 .1579895 .42037965 .1659851 .42037965 .18299866 .42037965 .18299866 .3883667 .18299866 .36735536 .17599488 .346344 .17199707 .3363495 .1639862 .31033326 .11898804 .19430542 .102996829 .1512909 .09298706 .12528992 .07998657 .0922699 .07998657 .0712738 .07998657 .024261475 .11399841-.0107421879 .1619873-.0107421879 .2559967-.0107421879 .29299928 .1342926 .29299928 .14329529 .29299928 .1532898 .28399659 .1532898 .2809906 .1532898 .2709961 .1532898 .2709961 .15029907 .2659912 .13528443 .24798584 .072265628 .21499634 .011245728 .1639862 .011245728 .14698792 .011245728 .13999939 .021255494 .13999939 .044265748 .13999939 .0692749 .1459961 .08326721 .16899109 .14428711L.20799256 .24932862Z"/>
<path id="font_3_64" d="M.27598573 .18710327V.24511719H.010986328V.18710327H.27598573Z"/>
<path id="font_3_105" d="M.33198548 .12385559V.18066406H.30699159V.12585449C.30699159 .052108766 .2769928 .014251709 .23999024 .014251709 .17298889 .014251709 .17298889 .10491943 .17298889 .12187195V.3996582H.31599427V.43066407H.17298889V.6142578H.147995C.14698792 .5324249 .116989139 .42565919 .018997193 .42166139V.3996582H.10398865V.12408447C.10398865 .0012512207 .19699097-.0107421879 .23298645-.0107421879 .3039856-.0107421879 .33198548 .060180665 .33198548 .12408447V.12385559Z"/>
<path id="font_3_63" d="M.5349884 0V.0309906C.48298646 .0309906 .45799256 .0309906 .45700074 .061019899V.25221253C.45700074 .3383026 .45700074 .36932374 .42599488 .405365 .4119873 .42237855 .3789978 .4423828 .32099916 .4423828 .23699951 .4423828 .19299317 .38233949 .1769867 .34629823H.17599488V.69433596L.03199768 .6826172V.6516113C.101989749 .6516113 .10998535 .64463809 .10998535 .59580996V.076034549C.10998535 .0309906 .09899902 .0309906 .03199768 .0309906V0L.14498902 .0029907227 .25698854 0V.0309906C.18998719 .0309906 .1789856 .0309906 .1789856 .076034549V.2602234C.1789856 .36431886 .25 .42037965 .31399537 .42037965 .3769989 .42037965 .3880005 .36631776 .3880005 .30926515V.076034549C.3880005 .0309906 .3769989 .0309906 .30999757 .0309906V0L.4229889 .0029907227 .5349884 0Z"/>
<path id="font_3_82" d="M.4189911 0V.0309906H.3869934C.29699708 .0309906 .2939911 .041992189 .2939911 .07902527V.64012148C.2939911 .6640167 .2939911 .6660156 .2709961 .6660156 .20899964 .60227969 .12098694 .60227969 .08898926 .60227969V.57128909C.10899353 .57128909 .16799927 .57128909 .21998596 .5972748V.07902527C.21998596 .042999269 .21699524 .0309906 .1269989 .0309906H.09498596V0C.12998963 .0029907227 .21699524 .0029907227 .25698854 .0029907227 .29699708 .0029907227 .38398744 .0029907227 .4189911 0Z"/>
<path id="font_3_121" d="M.45999146 .31976319C.45999146 .39982606 .45498658 .47988893 .41999818 .5539398 .37399293 .65000918 .2919922 .6660156 .25 .6660156 .18998719 .6660156 .116989139 .64001467 .07598877 .54693606 .04399109 .47789 .038986207 .39982606 .038986207 .31976319 .038986207 .24472046 .042999269 .15464783 .083999637 .07859802 .1269989-.0024719239 .19999695-.022460938 .24899292-.022460938 .30299378-.022460938 .3789978-.0014648438 .4229889 .09359741 .45498658 .16265869 .45999146 .2407074 .45999146 .31976319M.3769989 .3317871C.3769989 .25672914 .3769989 .18867493 .3659973 .12461853 .35099793 .029556275 .2939911-.00047302247 .24899292-.00047302247 .20999146-.00047302247 .15098572 .024551392 .1329956 .12062073 .12199402 .18066406 .12199402 .2727356 .12199402 .3317871 .12199402 .39582826 .12199402 .46188355 .12998963 .5159149 .14898682 .63500979 .22399903 .64401248 .24899292 .64401248 .28199769 .64401248 .34799195 .6259918 .36698915 .52693179 .3769989 .47088624 .3769989 .39482118 .3769989 .3317871Z"/>
<path id="font_3_280" d="M.19198609 .052993776C.19198609 .08198547 .16799927 .10598755 .13899231 .10598755 .10998535 .10598755 .085998538 .08198547 .085998538 .052993776 .085998538 .023986817 .10998535 0 .13899231 0 .16799927 0 .19198609 .023986817 .19198609 .052993776M.3880005 .052993776C.3880005 .08198547 .3639984 .10598755 .33499146 .10598755 .30599977 .10598755 .28199769 .08198547 .28199769 .052993776 .28199769 .023986817 .30599977 0 .33499146 0 .3639984 0 .3880005 .023986817 .3880005 .052993776M.58399966 .052993776C.58399966 .08198547 .55999758 .10598755 .5309906 .10598755 .5019989 .10598755 .47799684 .08198547 .47799684 .052993776 .47799684 .023986817 .5019989 0 .5309906 0 .55999758 0 .58399966 .023986817 .58399966 .052993776Z"/>
<path id="font_3_88" d="M.19198609 .052993776C.19198609 .08198547 .16799927 .10598755 .13899231 .10598755 .10998535 .10598755 .085998538 .08198547 .085998538 .052993776 .085998538 .023986817 .10998535 0 .13899231 0 .16799927 0 .19198609 .023986817 .19198609 .052993776Z"/>
<path id="font_3_43" d="M.4149933 .119140628C.4149933 .12911988 .40499879 .12911988 .4019928 .12911988 .3929901 .12911988 .3909912 .12512207 .3889923 .119140628 .3600006 .026229859 .29499818 .014251709 .2579956 .014251709 .20498657 .014251709 .116989139 .0572052 .116989139 .21801758 .116989139 .38093568 .19898987 .42323304 .2519989 .42323304 .26098634 .42323304 .32398988 .42222596 .35899354 .38594056 .31799317 .38293458 .31199647 .3529358 .31199647 .3399353 .31199647 .31393434 .32998658 .2939453 .35798646 .2939453 .38398744 .2939453 .4039917 .3109436 .4039917 .34094239 .4039917 .40911866 .32798768 .4482422 .25099183 .4482422 .12599182 .4482422 .033996583 .3399353 .033996583 .21601868 .033996583 .08816528 .1329956-.0107421879 .24899292-.0107421879 .3829956-.0107421879 .4149933 .10914612 .4149933 .119140628Z"/>
<path id="font_2_1" d="M.70799258 .23292542C.70999148 .23791504 .71299746 .24491883 .71299746 .24691773 .71299746 .24790955 .71299746 .2579193 .70098879 .2579193 .69200137 .2579193 .6899872 .25190736 .6879883 .24591065 .6230011 .097961429 .58599856 .0309906 .4149933 .0309906H.2689972C.25498963 .0309906 .25299073 .0309906 .24699402 .03199768 .23699951 .032989503 .23399353 .033996583 .23399353 .041992189 .23399353 .04498291 .23399353 .04698181 .23899842 .06498718L.30699159 .33789063H.4059906C.4909973 .33789063 .4909973 .31689454 .4909973 .29190064 .4909973 .28489686 .4909973 .27290345 .48399354 .24291992 .48199464 .23791504 .48098756 .23492432 .48098756 .23191834 .48098756 .22692871 .4850006 .220932 .49398805 .220932 .5019989 .220932 .5049896 .22592163 .5089874 .24092102L.56599429 .47477723C.56599429 .48077394 .5609894 .48576356 .55400088 .48576356 .54499819 .48576356 .54299929 .47976686 .5399933 .4677887 .5189972 .39186097 .5009918 .36888124 .40899659 .36888124H.31498719L.375 .60964968C.38398744 .64460757 .3849945 .64860537 .42900086 .64860537H.56999209C.69200137 .64860537 .7220001 .61964419 .7220001 .5377197 .7220001 .51374819 .7220001 .51174929 .71798709 .48477174 .71798709 .47877503 .71699526 .4717865 .71699526 .46678163 .71699526 .461792 .7200012 .45480348 .72898867 .45480348 .73999026 .45480348 .7409973 .46080018 .7429962 .47976686L.7630005 .65260317C.7659912 .6796112 .7609863 .6796112 .73599246 .6796112H.23098755C.21099854 .6796112 .20098877 .6796112 .20098877 .65960696 .20098877 .64860537 .20999146 .64860537 .22898865 .64860537 .2659912 .64860537 .2939911 .64860537 .2939911 .6306305 .2939911 .6266327 .2939911 .6246338 .2889862 .6066437L.15699768 .07797241C.14698792 .038986207 .14498902 .0309906 .06599426 .0309906 .04899597 .0309906 .037994386 .0309906 .037994386 .011993408 .037994386 0 .04699707 0 .06599426 0H.58499148C.60798647 0 .60899356 .0009918213 .6159973 .016998291L.70799258 .23292542Z"/>
<path id="font_4_1" d="M.43798829 .38304139C.4019928 .37702943 .3869934 .34902955 .3869934 .32702638 .3869934 .30003358 .4079895 .29003907 .42599488 .29003907 .44799806 .29003907 .48298646 .30603028 .48298646 .35403443 .48298646 .4223938 .40499879 .44140626 .35099793 .44140626 .20098877 .44140626 .06199646 .3030243 .06199646 .16412354 .06199646 .078186038 .12199402-.009765625 .24699402-.009765625 .41600038-.009765625 .49499513 .08917236 .49499513 .10316467 .49499513 .10916138 .48599244 .120147708 .47799684 .120147708 .47200013 .120147708 .46998597 .1181488 .46199037 .11016846 .38398744 .018234253 .2669983 .018234253 .24899292 .018234253 .1769867 .018234253 .14498902 .06718445 .14498902 .12915039 .14498902 .15812683 .15899658 .26704408 .21099854 .33602906 .24899292 .3850708 .30099488 .4133911 .35099793 .4133911 .36499024 .4133911 .41299439 .41137696 .43798829 .38304139Z"/>
<path id="font_4_2" d="M.23498535 .2023468C.23599243 .2083435 .25898744 .29840089 .26098634 .30340577 .2630005 .31140138 .2919922 .36140443 .32398988 .3854065 .33499146 .3934021 .3619995 .4133911 .40499879 .4133911 .4149933 .4133911 .43998719 .4123993 .45999146 .39941407 .42799378 .39041139 .41600038 .3624115 .41600038 .34440614 .41600038 .32240296 .43299867 .30740357 .45599366 .30740357 .47898866 .30740357 .5119934 .32640077 .5119934 .3684082 .5119934 .4203949 .45700074 .44140626 .4059906 .44140626 .35398866 .44140626 .30899049 .4203949 .2649994 .3704071 .24699402 .43139649 .18598938 .44140626 .1619873 .44140626 .125 .44140626 .099990848 .418396 .083999637 .39041139 .06098938 .3514099 .04699707 .293396 .04699707 .2883911 .04699707 .27539063 .06098938 .27539063 .06399536 .27539063 .07798767 .27539063 .07899475 .2783966 .085998538 .30540467 .100997928 .3664093 .11999512 .4133911 .15899658 .4133911 .18499756 .4133911 .19198609 .3914032 .19198609 .3644104 .19198609 .3454132 .18299866 .30841065 .17599488 .28138734 .16899109 .25437928 .15899658 .21334839 .1539917 .19132996L.12199402 .06326294C.117996219 .050247194 .11199951 .025238038 .11199951 .022232056 .11199951 .00022888184 .12998963-.009765625 .1459961-.009765625 .16099549-.009765625 .18099976-.00077819827 .18899536 .019226075 .19099427 .025238038 .20199585 .06925964 .20799256 .09428406L.23498535 .2023468Z"/>
<path id="font_5_1" d="M.3959961 .6244507C.3959961 .64845278 .37799073 .66744998 .35198976 .66744998 .32398988 .66744998 .29100038 .6404419 .29100038 .6074524 .29100038 .5794525 .31298829 .5644531 .33399964 .5644531 .36698915 .5644531 .3959961 .5944519 .3959961 .6244507M.44299317 .14428711C.44299317 .15829468 .42599488 .15829468 .42199708 .15829468 .40499879 .15829468 .4039917 .15429688 .397995 .13528443 .3809967 .08027649 .33599855 .023254395 .28599549 .023254395 .2630005 .023254395 .2559967 .039260866 .2559967 .061264039 .2559967 .08227539 .26098634 .09327698 .2689972 .11227417 .2769928 .1322937 .2849884 .15229798 .2899933 .16629029 .2939911 .17530823 .33299256 .2683258 .34700013 .30433656 .35499574 .32435609 .36099244 .33735658 .36099244 .35435487 .36099244 .40237428 .31498719 .4423828 .2519989 .4423828 .14698792 .4423828 .09098816 .3143463 .09098816 .28733827 .09098816 .2733307 .10699463 .2733307 .11199951 .2733307 .1289978 .2733307 .12998963 .27833558 .1349945 .29333497 .15699768 .36436463 .20498657 .40837098 .24798584 .40837098 .2669983 .40837098 .27799989 .39736939 .27799989 .37036134 .27799989 .36636354 .27799989 .35336305 .27198792 .3343506 .2649994 .3163452 .21998596 .20930481 .20599365 .17530823 .19898987 .15829468 .19898987 .15629578 .18399048 .122283939 .1789856 .10827637 .17298889 .0942688 .17298889 .07727051 .17298889 .025253296 .22200012-.0107421879 .28199769-.0107421879 .3869934-.0107421879 .44299317 .119277957 .44299317 .14428711Z"/>
</defs>
<use data-text="&#xf8ee;" xlink:href="#font_1_1" transform="matrix(9.962799,0,0,-9.962899,17.551117,22.407526)"/>
<use data-text="&#xf8ef;" xlink:href="#font_1_5" transform="matrix(9.962799,0,0,-9.962899,17.551117,39.943056)"/>
<use data-text="&#xf8ef;" xlink:href="#font_1_5" transform="matrix(9.962799,0,0,-9.962899,17.551117,45.920236)"/>
<use data-text="&#xf8ef;" xlink:href="#font_1_5" transform="matrix(9.962799,0,0,-9.962899,17.551117,51.898416)"/>
<use data-text="&#xf8ef;" xlink:href="#font_1_5" transform="matrix(9.962799,0,0,-9.962899,17.551117,57.876596)"/>
<use data-text="&#xf8ef;" xlink:href="#font_1_5" transform="matrix(9.962799,0,0,-9.962899,17.551117,63.853776)"/>
<use data-text="&#xf8ef;" xlink:href="#font_1_5" transform="matrix(9.962799,0,0,-9.962899,17.551117,69.831958)"/>
<use data-text="&#xf8ef;" xlink:href="#font_1_5" transform="matrix(9.962799,0,0,-9.962899,17.551117,75.810138)"/>
<use data-text="&#xf8ef;" xlink:href="#font_1_5" transform="matrix(9.962799,0,0,-9.962899,17.551117,81.787319)"/>
<use data-text="&#xf8ef;" xlink:href="#font_1_5" transform="matrix(9.962799,0,0,-9.962899,17.551117,87.76549)"/>
<use data-text="&#xf8ef;" xlink:href="#font_1_5" transform="matrix(9.962799,0,0,-9.962899,17.551117,93.74367)"/>
<use data-text="&#xf8ef;" xlink:href="#font_1_5" transform="matrix(9.962799,0,0,-9.962899,17.551117,99.72084)"/>
<use data-text="&#xf8ef;" xlink:href="#font_1_5" transform="matrix(9.962799,0,0,-9.962899,17.551117,105.69902)"/>
<use data-text="&#xf8ef;" xlink:href="#font_1_5" transform="matrix(9.962799,0,0,-9.962899,17.551117,111.67719)"/>
<use data-text="&#xf8ef;" xlink:href="#font_1_5" transform="matrix(9.962799,0,0,-9.962899,17.551117,117.65437)"/>
<use data-text="&#xf8ef;" xlink:href="#font_1_5" transform="matrix(9.962799,0,0,-9.962899,17.551117,123.632549)"/>
<use data-text="&#xf8ef;" xlink:href="#font_1_5" transform="matrix(9.962799,0,0,-9.962899,17.551117,129.60973)"/>
<use data-text="&#xf8ef;" xlink:href="#font_1_5" transform="matrix(9.962799,0,0,-9.962899,17.551117,135.5879)"/>
<use data-text="&#xf8ef;" xlink:href="#font_1_5" transform="matrix(9.962799,0,0,-9.962899,17.551117,141.56609)"/>
<use data-text="&#xf8f0;" xlink:href="#font_1_3" transform="matrix(9.962799,0,0,-9.962899,17.551117,147.94229)"/>
<use data-text="&#xf8f9;" xlink:href="#font_1_2" transform="matrix(9.962799,0,0,-9.962899,171.8842,22.407526)"/>
<use data-text="&#xf8fa;" xlink:href="#font_1_6" transform="matrix(9.962799,0,0,-9.962899,171.8842,39.943056)"/>
<use data-text="&#xf8fa;" xlink:href="#font_1_6" transform="matrix(9.962799,0,0,-9.962899,171.8842,45.920236)"/>
<use data-text="&#xf8fa;" xlink:href="#font_1_6" transform="matrix(9.962799,0,0,-9.962899,171.8842,51.898416)"/>
<use data-text="&#xf8fa;" xlink:href="#font_1_6" transform="matrix(9.962799,0,0,-9.962899,171.8842,57.876596)"/>
<use data-text="&#xf8fa;" xlink:href="#font_1_6" transform="matrix(9.962799,0,0,-9.962899,171.8842,63.853776)"/>
<use data-text="&#xf8fa;" xlink:href="#font_1_6" transform="matrix(9.962799,0,0,-9.962899,171.8842,69.831958)"/>
<use data-text="&#xf8fa;" xlink:href="#font_1_6" transform="matrix(9.962799,0,0,-9.962899,171.8842,75.810138)"/>
<use data-text="&#xf8fa;" xlink:href="#font_1_6" transform="matrix(9.962799,0,0,-9.962899,171.8842,81.787319)"/>
<use data-text="&#xf8fa;" xlink:href="#font_1_6" transform="matrix(9.962799,0,0,-9.962899,171.8842,87.76549)"/>
<use data-text="&#xf8fa;" xlink:href="#font_1_6" transform="matrix(9.962799,0,0,-9.962899,171.8842,93.74367)"/>
<use data-text="&#xf8fa;" xlink:href="#font_1_6" transform="matrix(9.962799,0,0,-9.962899,171.8842,99.72084)"/>
<use data-text="&#xf8fa;" xlink:href="#font_1_6" transform="matrix(9.962799,0,0,-9.962899,171.8842,105.69902)"/>
<use data-text="&#xf8fa;" xlink:href="#font_1_6" transform="matrix(9.962799,0,0,-9.962899,171.8842,111.67719)"/>
<use data-text="&#xf8fa;" xlink:href="#font_1_6" transform="matrix(9.962799,0,0,-9.962899,171.8842,117.65437)"/>
<use data-text="&#xf8fa;" xlink:href="#font_1_6" transform="matrix(9.962799,0,0,-9.962899,171.8842,123.632549)"/>
<use data-text="&#xf8fa;" xlink:href="#font_1_6" transform="matrix(9.962799,0,0,-9.962899,171.8842,129.60973)"/>
<use data-text="&#xf8fa;" xlink:href="#font_1_6" transform="matrix(9.962799,0,0,-9.962899,171.8842,135.5879)"/>
<use data-text="&#xf8fa;" xlink:href="#font_1_6" transform="matrix(9.962799,0,0,-9.962899,171.8842,141.56609)"/>
<use data-text="&#xf8fb;" xlink:href="#font_1_4" transform="matrix(9.962799,0,0,-9.962899,171.8842,147.94229)"/>
<path transform="matrix(1.00002,0,0,-1.00003,85.249469,93.74267)" stroke-width="14.94415" stroke-linecap="round" stroke-miterlimit="10" stroke-linejoin="miter" fill="none" stroke="#ff0000" stroke-opacity=".2" d="M-51.15569-12.78891H76.73354"/>
<path transform="matrix(1.00002,0,0,-1.00003,85.249469,93.74267)" stroke-width="14.94415" stroke-linecap="round" stroke-miterlimit="10" stroke-linejoin="miter" fill="none" stroke="#00ff00" stroke-opacity=".2" d="M25.57784 63.94461V-63.94461"/>
<use data-text="i" xlink:href="#font_2_2" transform="matrix(9.962799,0,0,-9.962899,103.847858,7.9780886)"/>
<use data-text="-" xlink:href="#font_3_64" transform="matrix(9.962799,0,0,-9.962899,107.27992,7.9780886)"/>
<use data-text="t" xlink:href="#font_3_105" transform="matrix(9.962799,0,0,-9.962899,110.59752,7.9780886)"/>
<use data-text="h" xlink:href="#font_3_63" transform="matrix(9.962799,0,0,-9.962899,114.47307,7.9780886)"/>
<use data-text="1" xlink:href="#font_3_82" transform="matrix(9.962799,0,0,-9.962899,31.600403,33.555856)"/>
<use data-text="0" xlink:href="#font_3_121" transform="matrix(9.962799,0,0,-9.962899,57.178926,33.555856)"/>
<use data-text="0" xlink:href="#font_3_121" transform="matrix(9.962799,0,0,-9.962899,82.756458,33.555856)"/>
<use data-text="0" xlink:href="#font_3_121" transform="matrix(9.962799,0,0,-9.962899,108.334949,33.555856)"/>
<use data-text="&#x2026;" xlink:href="#font_3_280" transform="matrix(9.962799,0,0,-9.962899,133.06645,33.555856)"/>
<use data-text="0" xlink:href="#font_3_121" transform="matrix(9.962799,0,0,-9.962899,159.49095,33.555856)"/>
<use data-text="0" xlink:href="#font_3_121" transform="matrix(9.962799,0,0,-9.962899,31.600403,59.13463)"/>
<use data-text="1" xlink:href="#font_3_82" transform="matrix(9.962799,0,0,-9.962899,57.178926,59.13463)"/>
<use data-text="0" xlink:href="#font_3_121" transform="matrix(9.962799,0,0,-9.962899,82.756458,59.13463)"/>
<use data-text="0" xlink:href="#font_3_121" transform="matrix(9.962799,0,0,-9.962899,108.334949,59.13463)"/>
<use data-text="&#x2026;" xlink:href="#font_3_280" transform="matrix(9.962799,0,0,-9.962899,133.06645,59.13463)"/>
<use data-text="0" xlink:href="#font_3_121" transform="matrix(9.962799,0,0,-9.962899,159.49095,59.13463)"/>
<use data-text="." xlink:href="#font_3_88" transform="matrix(9.962799,0,0,-9.962899,58.284944,76.74216)"/>
<use data-text="." xlink:href="#font_3_88" transform="matrix(9.962799,0,0,-9.962899,58.284944,80.72728)"/>
<use data-text="." xlink:href="#font_3_88" transform="matrix(9.962799,0,0,-9.962899,58.284944,84.712398)"/>
<use data-text="." xlink:href="#font_3_88" transform="matrix(9.962799,0,0,-9.962899,135.01848,76.74216)"/>
<use data-text="." xlink:href="#font_3_88" transform="matrix(9.962799,0,0,-9.962899,135.01848,80.72728)"/>
<use data-text="." xlink:href="#font_3_88" transform="matrix(9.962799,0,0,-9.962899,135.01848,84.712398)"/>
<use data-text="i" xlink:href="#font_2_2" transform="matrix(9.962799,0,0,-9.962899,1.5358124,110.29116)"/>
<use data-text="-" xlink:href="#font_3_64" transform="matrix(9.962799,0,0,-9.962899,4.9678804,110.29116)"/>
<use data-text="t" xlink:href="#font_3_105" transform="matrix(9.962799,0,0,-9.962899,8.285507,110.29116)"/>
<use data-text="h" xlink:href="#font_3_63" transform="matrix(9.962799,0,0,-9.962899,12.161041,110.29116)"/>
<use data-text="0" xlink:href="#font_3_121" transform="matrix(9.962799,0,0,-9.962899,31.600403,110.29116)"/>
<use data-text="0" xlink:href="#font_3_121" transform="matrix(9.962799,0,0,-9.962899,57.178926,110.29116)"/>
<use data-text="0" xlink:href="#font_3_121" transform="matrix(9.962799,0,0,-9.962899,82.756458,110.29116)"/>
<use data-text="c" xlink:href="#font_3_43" transform="matrix(9.962799,0,0,-9.962899,108.61397,110.29116)"/>
<use data-text="0" xlink:href="#font_3_121" transform="matrix(9.962799,0,0,-9.962899,133.91246,110.29116)"/>
<use data-text="0" xlink:href="#font_3_121" transform="matrix(9.962799,0,0,-9.962899,159.49095,110.29116)"/>
<use data-text="." xlink:href="#font_3_88" transform="matrix(9.962799,0,0,-9.962899,58.284944,127.89868)"/>
<use data-text="." xlink:href="#font_3_88" transform="matrix(9.962799,0,0,-9.962899,58.284944,131.8838)"/>
<use data-text="." xlink:href="#font_3_88" transform="matrix(9.962799,0,0,-9.962899,58.284944,135.86893)"/>
<use data-text="." xlink:href="#font_3_88" transform="matrix(9.962799,0,0,-9.962899,135.01848,127.89868)"/>
<use data-text="." xlink:href="#font_3_88" transform="matrix(9.962799,0,0,-9.962899,135.01848,131.8838)"/>
<use data-text="." xlink:href="#font_3_88" transform="matrix(9.962799,0,0,-9.962899,135.01848,135.86893)"/>
<use data-text="0" xlink:href="#font_3_121" transform="matrix(9.962799,0,0,-9.962899,31.600403,161.4477)"/>
<use data-text="0" xlink:href="#font_3_121" transform="matrix(9.962799,0,0,-9.962899,57.178926,161.4477)"/>
<use data-text="&#x2026;" xlink:href="#font_3_280" transform="matrix(9.962799,0,0,-9.962899,81.910419,161.4477)"/>
<use data-text="0" xlink:href="#font_3_121" transform="matrix(9.962799,0,0,-9.962899,108.334949,161.4477)"/>
<use data-text="0" xlink:href="#font_3_121" transform="matrix(9.962799,0,0,-9.962899,133.91246,161.4477)"/>
<use data-text="1" xlink:href="#font_3_82" transform="matrix(9.962799,0,0,-9.962899,159.49095,161.4477)"/>
<use data-text="E" xlink:href="#font_2_1" transform="matrix(9.962799,0,0,-9.962899,106.860919,187.02547)"/>
<use data-text="c" xlink:href="#font_4_1" transform="matrix(6.97394,0,0,-6.9740097,105.617877,193.00365)"/>
<use data-text="r" xlink:href="#font_4_2" transform="matrix(6.97394,0,0,-6.9740097,109.174579,193.00365)"/>
<use data-text="i" xlink:href="#font_5_1" transform="matrix(4.9813997,0,0,-4.9814498,112.87703,193.99968)"/>
</svg>
