<svg xmlns="http://www.w3.org/2000/svg" xmlns:xlink="http://www.w3.org/1999/xlink" xmlns:inkscape="http://www.inkscape.org/namespaces/inkscape" version="1.1" width="151" height="126" viewBox="0 0 151 126">
<defs>
<path id="font_1_1" d="M.30299378 .3157959H.47299195C.61499026 .3157959 .7539978 .41973878 .7539978 .53167727 .7539978 .6086273 .6879883 .6826172 .5569916 .6826172H.23298645C.21398926 .6826172 .20298767 .6826172 .20298767 .66360476 .20298767 .6516113 .21199036 .6516113 .23199463 .6516113 .24499512 .6516113 .2630005 .65060427 .2749939 .6496124 .29100038 .6476135 .29699708 .64460757 .29699708 .6336212 .29699708 .6296234 .29599 .62661746 .29299928 .614624L.15899658 .07795715C.14898682 .038986207 .14698792 .0309906 .067993167 .0309906 .050994874 .0309906 .039993287 .0309906 .039993287 .011993408 .039993287 0 .051986696 0 .054992677 0 .08299255 0 .1539917 .0029907227 .18199158 .0029907227 .20298767 .0029907227 .22499085 .0019989014 .24598694 .0019989014 .2679901 .0019989014 .2899933 0 .31098939 0 .31799317 0 .33099366 0 .33099366 .019989014 .33099366 .0309906 .32199098 .0309906 .30299378 .0309906 .2659912 .0309906 .23799134 .0309906 .23799134 .048980714 .23799134 .054977418 .23999024 .05996704 .24099732 .065963748L.30299378 .3157959M.375 .6136322C.38398744 .64860537 .38598634 .6516113 .42900086 .6516113H.5249939C.60798647 .6516113 .6609955 .62461856 .6609955 .55566409 .6609955 .5166931 .6409912 .43074037 .60198977 .39476014 .5519867 .34977723 .49198915 .34179688 .44799806 .34179688H.30699159L.375 .6136322Z"/>
<path id="font_2_1" d="M.33099366-.2400055C.33099366-.23701477 .33099366-.23500061 .31399537-.21800232 .18899536-.0920105 .15699768 .09700012 .15699768 .25 .15699768 .42399598 .19499207 .59799197 .31799317 .72299197 .33099366 .73498538 .33099366 .7369995 .33099366 .73999026 .33099366 .746994 .32699586 .75 .32099916 .75 .31098939 .75 .22099304 .6819916 .1619873 .5549927 .11099243 .44499208 .09899902 .33399964 .09899902 .25 .09899902 .17199707 .10998535 .050994874 .16499329-.06201172 .22499085-.18501282 .31098939-.25 .32099916-.25 .32699586-.25 .33099366-.24700928 .33099366-.2400055Z"/>
<path id="font_1_2" d="M.23899842 .68333438C.23899842 .6843262 .23899842 .69433596 .22599793 .69433596 .20298767 .69433596 .12998963 .6863251 .10398865 .6843262 .09599304 .68333438 .084991458 .6823273 .084991458 .6643219 .084991458 .6523285 .09399414 .6523285 .10899353 .6523285 .15699768 .6523285 .15899658 .6453247 .15899658 .6353302 .15899658 .6283264 .1499939 .5943451 .14498902 .573349L.06298828 .24731446C.050994874 .1973114 .04699707 .18130493 .04699707 .14628601 .04699707 .05126953 .099990848-.0107421879 .17399597-.0107421879 .2919922-.0107421879 .4149933 .1382904 .4149933 .28233338 .4149933 .37335206 .3619995 .4423828 .28199769 .4423828 .23599243 .4423828 .19499207 .41337586 .16499329 .38235475L.23899842 .68333438M.14498902 .30534364C.15098572 .3273468 .15098572 .3293457 .1599884 .3403473 .20899964 .405365 .2539978 .42037965 .27999879 .42037965 .31599427 .42037965 .34298707 .3903656 .34298707 .32633973 .34298707 .26733399 .30999757 .15229798 .2919922 .11428833 .25898744 .04725647 .21299744 .011245728 .17399597 .011245728 .13999939 .011245728 .10699463 .038253786 .10699463 .11227417 .10699463 .13128662 .10699463 .15029907 .12298584 .21331787L.14498902 .30534364Z"/>
<path id="font_2_3" d="M.40899659 .23046875H.6879883C.70199587 .23046875 .72099307 .23046875 .72099307 .25045777 .72099307 .27046205 .70199587 .27046205 .6879883 .27046205H.40899659V.5500183C.40899659 .56399539 .40899659 .5830078 .3889923 .5830078 .36898805 .5830078 .36898805 .56399539 .36898805 .5500183V.27046205H.08898926C.07499695 .27046205 .055999757 .27046205 .055999757 .25045777 .055999757 .23046875 .07499695 .23046875 .08898926 .23046875H.36898805V-.05000305C.36898805-.06401062 .36898805-.08300781 .3889923-.08300781 .40899659-.08300781 .40899659-.06401062 .40899659-.05000305V.23046875Z"/>
<path id="font_2_5" d="M.1269989 .07699585 .23298645 .18003845C.3889923 .31811524 .44898988 .3721466 .44898988 .47216798 .44898988 .5860901 .35899354 .6660156 .23699951 .6660156 .12399292 .6660156 .049987794 .57411196 .049987794 .48516847 .049987794 .4291687 .099990848 .4291687 .102996829 .4291687 .11999512 .4291687 .15499878 .44117738 .15499878 .48217774 .15499878 .5081787 .13699341 .5341797 .101989749 .5341797 .09399414 .5341797 .09199524 .5341797 .08898926 .5331726 .11199951 .59806826 .1659851 .63500979 .22399903 .63500979 .31498719 .63500979 .35798646 .5541382 .35798646 .47216798 .35798646 .39215089 .30799867 .31311036 .25299073 .25108338L.06098938 .036987306C.049987794 .025985718 .049987794 .023986817 .049987794 0H.42099L.44898988 .17404175H.42399598C.4189911 .14402771 .4119873 .1000061 .4019928 .084991458 .394989 .07699585 .32899476 .07699585 .30699159 .07699585H.1269989Z"/>
<path id="font_2_2" d="M.2889862 .25C.2889862 .32798768 .27799989 .44898988 .22299195 .56199648 .16299439 .68499758 .07699585 .75 .066986087 .75 .06098938 .75 .056991579 .74598696 .056991579 .73999026 .056991579 .7369995 .056991579 .73498538 .07598877 .71699526 .17399597 .6179962 .23098755 .45899964 .23098755 .25 .23098755 .07899475 .19400025-.09700012 .069992069-.2230072 .056991579-.23500061 .056991579-.23701477 .056991579-.2400055 .056991579-.2460022 .06098938-.25 .066986087-.25 .07699585-.25 .16699219-.18200684 .22599793-.055007936 .2769928 .054992677 .2889862 .16600037 .2889862 .25Z"/>
<path id="font_2_4" d="M.2939911 .64004519C.2939911 .66400149 .2939911 .6660156 .2709961 .6660156 .20899964 .60227969 .12098694 .60227969 .08898926 .60227969V.57128909C.10899353 .57128909 .16799927 .57128909 .21998596 .5972748V.07902527C.21998596 .042999269 .21699524 .0309906 .1269989 .0309906H.09498596V0C.12998963 .0029907227 .21699524 .0029907227 .25698854 .0029907227 .29699708 .0029907227 .38398744 .0029907227 .4189911 0V.0309906H.3869934C.29699708 .0309906 .2939911 .041992189 .2939911 .07902527V.64004519Z"/>
<path id="font_3_43" d="M.46798707 .120407108C.46798707 .13243103 .45498658 .13243103 .45098878 .13243103 .43798829 .13243103 .43699647 .12942505 .43199159 .11540222 .4099884 .05328369 .35699464 .022232056 .29599 .022232056 .22698975 .022232056 .13699341 .07331848 .13699341 .21759033 .13699341 .34448243 .19898987 .41427613 .2919922 .41427613 .30499269 .41441346 .35299684 .41441346 .3889923 .39941407 .37098695 .39128114 .36099244 .37527467 .36099244 .35528565 .36099244 .3284607 .37998963 .30859376 .4079895 .30859376 .43499757 .30859376 .45599366 .32546998 .45599366 .35728456 .45599366 .44628907 .31698609 .44628907 .2889862 .44628907 .13899231 .44628907 .04598999 .33143617 .04598999 .21658325 .04598999 .09034729 .15299988-.009765625 .28399659-.009765625 .43299867-.009765625 .46798707 .10838318 .46798707 .120407108Z"/>
<path id="font_3_72" d="M.2809906 0V.035995485C.21598816 .035995485 .20599365 .035995485 .20599365 .07901001V.69433596L.055999757 .6826172V.64660647C.12298584 .64660647 .1309967 .6396179 .1309967 .59065249V.07896423C.1309967 .035995485 .12098694 .035995485 .055999757 .035995485V0C.055999757 0 .12799073 .0039978029 .16799927 .0039978029 .20599365 .0039978029 .24299622 .0029907227 .2809906 0Z"/>
<path id="font_3_66" d="M.27398683 0V.035995485C.21598816 .035995485 .20599365 .035995485 .20599365 .07803345V.44140626L.05899048 .43052674V.39453126C.12199402 .39453126 .1309967 .3885193 .1309967 .33952333V.07952881C.1309967 .035995485 .12098694 .035995485 .055999757 .035995485V0C.055999757 0 .12799073 .0039978029 .16799927 .0039978029 .20298767 .0039978029 .23899842 .0029907227 .27398683 0M.21899414 .60214236C.21899414 .6341553 .19400025 .66015627 .1619873 .66015627 .12799073 .66015627 .10499573 .6321411 .10499573 .6031494 .10499573 .57115176 .12998963 .54515078 .1619873 .54515078 .19599915 .54515078 .21899414 .57315066 .21899414 .60214236Z"/>
<path id="font_3_75" d="M.8969879 0V.035995485C.83200076 .035995485 .82199099 .035995485 .82199099 .07904053V.3032837C.82199099 .3903656 .7789917 .44140626 .6719971 .44140626 .59298709 .44140626 .5389862 .39837647 .5119934 .34832765 .49198915 .41940309 .43798829 .44140626 .36499024 .44140626 .2829895 .44140626 .22999573 .39637757 .20199585 .34432984H.20098877V.44140626L.053985597 .43052674V.39453126C.12098694 .39453126 .1289978 .3875122 .1289978 .33843995V.079055789C.1289978 .035995485 .11898804 .035995485 .053985597 .035995485V0C.053985597 0 .12599182 .0039978029 .16799927 .0039978029 .20498657 .0039978029 .27398683 .0009918213 .2829895 0V.035995485C.21798706 .035995485 .20799256 .035995485 .20799256 .079055789V.25932313C.20799256 .36434938 .29100038 .4133911 .35699464 .4133911 .4269867 .4133911 .43598939 .3583374 .43598939 .3072815V.07904053C.43598939 .035995485 .42599488 .035995485 .36099244 .035995485V0C.36099244 0 .43299867 .0039978029 .47499085 .0039978029 .5119934 .0039978029 .58099368 .0009918213 .58999636 0V.035995485C.5249939 .035995485 .5149994 .035995485 .5149994 .07904053V.25923158C.5149994 .36434938 .59799197 .4133911 .6639862 .4133911 .73399356 .4133911 .7429962 .3583374 .7429962 .3072815V.07904053C.7429962 .035995485 .73298647 .035995485 .66799929 .035995485V0C.66799929 0 .73999026 .0039978029 .7819977 .0039978029 .81900027 .0039978029 .8880005 .0009918213 .8969879 0Z"/>
<path id="font_3_35" d="M.58399966 .21640015C.58399966 .33839417 .48098756 .44140626 .34999085 .44140626 .2899933 .44140626 .23498535 .41740418 .19898987 .38139344V.69433596L.04899597 .68333438V.6473236C.116989139 .6473236 .12399292 .639328 .12399292 .58935549V.00022888184H.1579895L.19299317 .06124878C.23098755 .011230469 .28599549-.009765625 .33898927-.009765625 .47099305-.009765625 .58399966 .089263919 .58399966 .2163086V.21640015M.49299623 .21731568C.49299623 .19430542 .49299623 .119277957 .45199586 .072250369 .4119873 .027236939 .36299134 .018234253 .33399964 .018234253 .2539978 .018234253 .21398926 .08125305 .20298767 .102264408V.33535768C.23098755 .38137818 .2849884 .4133911 .34498597 .4133911 .40098573 .4133911 .44099427 .38137818 .46099855 .35136415 .48098756 .32235719 .49299623 .28334046 .49299623 .21731568Z"/>
<path id="font_3_109" d="M.58999636 0V.035995485C.522995 .035995485 .5149994 .042999269 .5149994 .092056278V.44140626L.36099244 .43052674V.39453126C.42799378 .39439393 .43598939 .3874359 .43598939 .33872987V.16749573C.43598939 .079330448 .3789978 .018234253 .30299378 .018234253 .21199036 .018234253 .20799256 .061309816 .20799256 .11239624V.44140626L.053985597 .43052674V.39453126C.1289978 .39453126 .1289978 .39154054 .1289978 .30273438V.15246582C.1289978 .083343509 .1289978-.009765625 .29599-.009765625 .31799317-.009765625 .3909912-.009765625 .43899537 .07432556H.43998719V-.009765625L.58999636 0Z"/>
<path id="font_3_84" d="M.58399966 .21640015C.58399966 .33940126 .48199464 .44140626 .35499574 .44140626 .2979889 .44140626 .23999024 .4203949 .19898987 .3804016V.44140626L.04899597 .43052674V.39453126C.11898804 .39453126 .12399292 .38952638 .12399292 .34753419V-.11437988C.12399292-.15736389 .11399841-.15736389 .04899597-.15736389V-.19335938C.04899597-.19346619 .12098694-.18945313 .16299439-.18945313 .19999695-.18936157 .2689972-.19236756 .27799989-.19335938V-.15736389C.21299744-.15736389 .20298767-.15736389 .20298767-.114486698V.048233034C.20799256 .04324341 .25498963-.009765625 .33898927-.009765625 .47099305-.009765625 .58399966 .089263919 .58399966 .2163086V.21640015M.49299623 .2163086C.49299623 .102264408 .41799928 .018234253 .33299256 .018234253 .24499512 .018234253 .20599365 .09526062 .20298767 .101257327V.33335877C.23298645 .38339234 .29100038 .4093933 .34399415 .4093933 .42799378 .4093933 .49299623 .32136537 .49299623 .2163086Z"/>
<path id="font_3_112" d="M.56799319 .39465333V.43066407C.54299929 .4286499 .5169983 .426651 .49198915 .426651 .46499635 .426651 .42799378 .42765809 .40098573 .43066407V.39465333C.44299317 .39265443 .44299317 .35964967 .44299317 .35665895 .44299317 .35165406 .44198609 .34165956 .43499757 .32765199L.32199098 .08065796 .19799805 .35266114C.19799805 .35266114 .19198609 .36465455 .19198609 .37165834 .19198609 .39465333 .22599793 .39465333 .24299622 .39465333V.43066407C.24299622 .43066407 .16999817 .426651 .1289978 .426651 .09899902 .426651 .05999756 .42765809 .0309906 .43066407V.39465333C.085998538 .39453126 .09799194 .3925171 .11299133 .3585205L.2709961 .011184692C.27598573-.00079345706 .28199769-.009765625 .29899598-.009765625 .31799317-.009765625 .32199098-.00079345706 .32699586 .010192871L.47399903 .33258058C.5019989 .39352418 .5519867 .39453126 .56799319 .39453126V.39465333Z"/>
<path id="font_3_28" d="M.5439911 .09013367V.14515686H.5099945V.09114075C.5099945 .08113098 .5099945 .033111574 .47299195 .033111574 .43598939 .033111574 .43598939 .0801239 .43598939 .09313965V.268219C.43598939 .3212433 .43598939 .35925294 .3899994 .39627076 .34899903 .4302826 .30099488 .44628907 .24198914 .44628907 .14698792 .44628907 .07998657 .41027833 .07998657 .34925843 .07998657 .31723023 .101989749 .30023194 .12799073 .30023194 .15499878 .30023194 .1749878 .3202362 .1749878 .34724427 .1749878 .3642578 .16699219 .38526917 .13999939 .39326478 .17599488 .41827394 .23399353 .41827394 .23999024 .41827394 .29599 .41827394 .35699464 .38127137 .35699464 .29722596V.2662201C.3019867 .26420594 .23599243 .2612152 .16299439 .23420716 .07299805 .20118714 .04499817 .14616394 .04499817 .101135257 .04499817 .0152282719 .14898682-.009765625 .21998596-.009765625 .2999878-.009765625 .34700013 .035232545 .36799623 .07423401 .37199403 .033111574 .39898683-.0048828127 .44499208-.0048828127 .44499208-.0048828127 .5439911-.0048828127 .5439911 .09010315V.09013367M.35699464 .14111328C.35699464 .04522705 .272995 .018234253 .22799683 .018234253 .1769867 .018234253 .1289978 .052230836 .1289978 .10122681 .1289978 .15621948 .1769867 .23323059 .35699464 .24023438V.14111328Z"/>
<path id="font_4_1" d="M.34098817 .30978395H.5219879C.69099429 .30978395 .83399966 .41773988 .83399966 .52667239 .83399966 .6106262 .7519989 .6826172 .61499026 .6826172H.2649994C.24499512 .6826172 .23298645 .6826172 .23298645 .660614 .23298645 .64660647 .24398804 .64660647 .2659912 .64660647 .28199769 .64660647 .28599549 .64660647 .3039856 .64460757 .32398988 .64260867 .32598878 .64060977 .32598878 .63061526 .32598878 .62861636 .32598878 .6236267 .32199098 .6086273L.18998719 .081954959C.17999268 .04298401 .1789856 .035995485 .100997928 .035995485 .08299255 .035995485 .070999149 .035995485 .070999149 .01399231 .070999149 .0129852299 .070999149 0 .08699036 0 .115997318 0 .18798828 .0039978029 .21699524 .0039978029 .23399353 .0039978029 .2689972 .0039978029 .28599549 .0029907227 .30599977 .0019989014 .33099366 0 .34999085 0 .35598756 0 .37098695 0 .37098695 .021987915 .37098695 .035995485 .35899354 .035995485 .33898927 .035995485 .33799745 .035995485 .31900025 .035995485 .30099488 .037994386 .27799989 .039993287 .27799989 .04298401 .27799989 .052978517 .27799989 .053985597 .27799989 .05996704 .28199769 .07496643L.34098817 .30978395M.41299439 .6126251C.42099 .6436157 .42199708 .64660647 .46398927 .64660647H.58099368C.673996 .64660647 .7319946 .6186218 .7319946 .54766848 .7319946 .51667788 .7200012 .43772889 .66999819 .39276124 .6339874 .3607788 .57699587 .34179688 .5049896 .34179688H.34498597L.41299439 .6126251Z"/>
<path id="font_5_1" d="M.35499574 .75C.16499329 .61598208 .114990238 .40397645 .114990238 .25097657 .114990238 .10997009 .15699768-.10902405 .35499574-.24902344 .36299134-.24902344 .375-.24902344 .375-.23703003 .375-.23103333 .37199403-.22903443 .36499024-.22203064 .23199463-.10203552 .18299866 .067977908 .18299866 .24996948 .18299866 .519989 .28599549 .65197756 .36799623 .72598269 .37199403 .7299957 .375 .73298647 .375 .73799136 .375 .75 .36299134 .75 .35499574 .75Z"/>
<path id="font_4_2" d="M.2639923 .66430667C.2649994 .66630557 .2679901 .67930606 .2679901 .68029788 .2679901 .68530276 .2639923 .6943054 .2519989 .6943054 .23199463 .6943054 .14898682 .6863098 .12399292 .6843109 .115997318 .68330386 .101989749 .682312 .101989749 .66130068 .101989749 .64730837 .115997318 .64730837 .12799073 .64730837 .17599488 .64730837 .17599488 .64030459 .17599488 .63230898 .17599488 .62532046 .1659851 .58532717 .1599884 .5623474L.13699341 .4703827C.12799073 .43640138 .07299805 .21731568 .070999149 .20431519 .06599426 .18029785 .06599426 .16729737 .06599426 .1552887 .06599426 .054244996 .12998963-.009765625 .21299744-.009765625 .33799745-.009765625 .47099305 .12626648 .47099305 .27433778 .47099305 .39138795 .3899994 .44140626 .32099916 .44140626 .2689972 .44140626 .22499085 .4123993 .19499207 .38638307L.2639923 .66430667M.21398926 .018234253C.16499329 .018234253 .13699341 .06124878 .13699341 .120269779 .13699341 .1572876 .1459961 .19129944 .17399597 .3043518 .17999268 .32336427 .17999268 .32536317 .19898987 .34736634 .23699951 .39138795 .28199769 .4133911 .31799317 .4133911 .35699464 .4133911 .3909912 .38438417 .3909912 .31636048 .3909912 .27534486 .36898805 .17329407 .33898927 .11526489 .31498719 .06625366 .2649994 .018234253 .21398926 .018234253Z"/>
<path id="font_5_3" d="M.46299745 .2263794H.7689972C.7819977 .2263794 .80599978 .2263794 .80599978 .25038148 .80599978 .27539063 .7829895 .27539063 .7689972 .27539063H.46299745V.5821533C.46299745 .59513857 .46299745 .6191406 .43899537 .6191406 .4139862 .6191406 .4139862 .5961304 .4139862 .5821533V.27539063H.10699463C.09399414 .27539063 .069992069 .27539063 .069992069 .25138856 .069992069 .2263794 .09298706 .2263794 .10699463 .2263794H.4139862V-.08114624C.4139862-.09416199 .4139862-.11816406 .43798829-.11816406 .46299745-.11816406 .46299745-.09516907 .46299745-.08114624V.2263794Z"/>
<path id="font_5_4" d="M.33499146 .63612368C.33499146 .6630554 .33299256 .6640625 .30499269 .6640625 .24099732 .6014404 .1499939 .6004486 .10899353 .6004486V.5644531C.1329956 .5644531 .19898987 .5644531 .2539978 .592453V.08203125C.2539978 .04899597 .2539978 .035995485 .1539917 .035995485H.115997318V0C.13398743 .0009918213 .25698854 .0039978029 .2939911 .0039978029 .32499696 .0039978029 .45098878 .0009918213 .47299195 0V.035995485H.43499757C.33499146 .035995485 .33499146 .04899597 .33499146 .08203125V.63612368Z"/>
<path id="font_5_2" d="M.08999634 .75C.08299255 .75 .070999149 .75 .070999149 .73799136 .070999149 .73298647 .07398987 .7299957 .07998657 .72299197 .1659851 .64398196 .2619934 .5089874 .2619934 .25097657 .2619934 .04197693 .19699097-.11602783 .08898926-.21403504 .07199097-.23103333 .070999149-.23202515 .070999149-.23703003 .070999149-.24203491 .07398987-.24902344 .083999637-.24902344 .09599304-.24902344 .19099427-.18302918 .25698854-.058029176 .30099488 .024978638 .32998658 .13298035 .32998658 .24996948 .32998658 .39097596 .28799439 .60998538 .08999634 .75Z"/>
<path id="font_5_6" d="M.7679901 .3359375C.7829895 .3359375 .80599978 .3359375 .80599978 .3609314 .80599978 .38493348 .7819977 .38493348 .7689972 .38493348H.10699463C.09399414 .38493348 .069992069 .38493348 .069992069 .3609314 .069992069 .3359375 .09298706 .3359375 .10798645 .3359375H.7679901M.7689972 .11602783C.7819977 .11602783 .80599978 .11602783 .80599978 .1400299 .80599978 .16503906 .7829895 .16503906 .7679901 .16503906H.10798645C.09298706 .16503906 .069992069 .16503906 .069992069 .1400299 .069992069 .11602783 .09399414 .11602783 .10699463 .11602783H.7689972Z"/>
<path id="font_6_1" d="M.7849884 .3359375C.80400088 .3359375 .80599978 .3359375 .81799319 .325943 .8279877 .3179474 .8699951 .2849579 .94699099 .24998474 .8969879 .22999573 .85398867 .20500183 .8049927 .16503906H.116989139C.099990848 .16503906 .07699585 .16503906 .07699585 .1400299 .07699585 .11602783 .100997928 .11602783 .116989139 .11602783H.7509918C.66799929 .021972657 .6539917-.023040772 .6539917-.026046753 .6539917-.040039064 .66799929-.040039064 .67900088-.040039064 .69599917-.040039064 .69699099-.03904724 .70799258-.020050049 .7709961 .09602356 .8829956 .19500733 1.0319977 .23298645 1.0549927 .23898316 1.0609894 .23999024 1.0609894 .25097657 1.0609894 .25798036 1.0549927 .26296998 1.048996 .26496888 .923996 .29595948 .79299929 .36393739 .70399478 .52700808 .69699099 .54000857 .69699099 .5410156 .67900088 .5410156 .66799929 .5410156 .6539917 .5410156 .6539917 .52700808 .6539917 .51901248 .6879883 .45396424 .7509918 .38493348H.116989139C.099990848 .38493348 .07699585 .38493348 .07699585 .35992433 .07699585 .3359375 .100997928 .3359375 .116989139 .3359375H.7849884Z"/>
<path id="font_5_5" d="M.5049896 .18203736H.47099305C.46798707 .16001892 .45799256 .100997928 .44499208 .09098816 .43699647 .084991458 .3600006 .084991458 .34599305 .084991458H.1619873C.2669983 .17803955 .3019867 .20603943 .3619995 .25306703 .43598939 .312088 .5049896 .374115 .5049896 .46914674 .5049896 .5900879 .39898683 .6640625 .2709961 .6640625 .14698792 .6640625 .06298828 .57710269 .06298828 .4851532 .06298828 .43414308 .10598755 .42915345 .115997318 .42915345 .13999939 .42915345 .16899109 .44615174 .16899109 .48214723 .16899109 .5001526 .1619873 .53515627 .10998535 .53515627 .14099121 .6060791 .20899964 .62805178 .2559967 .62805178 .35598756 .62805178 .4079895 .5501404 .4079895 .46914674 .4079895 .38212586 .34599305 .3130951 .31399537 .27708436L.07299805 .038986207C.06298828 .02999878 .06298828 .027999878 .06298828 0H.47499085L.5049896 .18203736Z"/>
<path id="font_3_81" d="M.5289917 .21325684C.5289917 .3382721 .42199708 .44628907 .28399659 .44628907 .1459961 .44628907 .038986207 .3382721 .038986207 .21325684 .038986207 .0892334 .14898682-.009765625 .28399659-.009765625 .4189911-.009765625 .5289917 .0892334 .5289917 .21325684M.43798829 .22225952C.43798829 .17424011 .43499757 .12124634 .4059906 .08023071 .3789978 .042236329 .33299256 .022232056 .28399659 .022232056 .24699402 .022232056 .19299317 .034225465 .1599884 .083236698 .1329956 .12423706 .12998963 .17625427 .12998963 .22225952 .12998963 .2652588 .1309967 .32426454 .1659851 .36727906 .19099427 .39627076 .23298645 .41827394 .28399659 .41827394 .34298707 .41827394 .3849945 .39027406 .40699769 .3592682 .43499757 .32026673 .43798829 .27026368 .43798829 .22225952Z"/>
<path id="font_3_77" d="M.58999636 0V.035995485C.5249939 .035995485 .5149994 .035995485 .5149994 .07904053V.3032837C.5149994 .3903656 .47200013 .44140626 .36499024 .44140626 .2829895 .44140626 .22999573 .39637757 .20199585 .34432984H.20098877V.44140626L.053985597 .43052674V.39453126C.12098694 .39453126 .1289978 .3875122 .1289978 .33843995V.079055789C.1289978 .035995485 .11898804 .035995485 .053985597 .035995485V0C.053985597 0 .12599182 .0039978029 .16799927 .0039978029 .20498657 .0039978029 .27398683 .0009918213 .2829895 0V.035995485C.21798706 .035995485 .20799256 .035995485 .20799256 .079055789V.25932313C.20799256 .36434938 .29100038 .4133911 .35699464 .4133911 .4269867 .4133911 .43598939 .3583374 .43598939 .3072815V.07904053C.43598939 .035995485 .42599488 .035995485 .36099244 .035995485V0C.36099244 0 .43299867 .0039978029 .47499085 .0039978029 .5119934 .0039978029 .58099368 .0009918213 .58999636 0Z"/>
<path id="font_3_98" d="M.40699769 .1315155C.40699769 .1694336 .3899994 .1993866 .3639984 .2233429 .32598878 .25827027 .27999879 .2662506 .24499512 .2722473 .16499329 .28622438 .099990848 .29818727 .099990848 .35113526 .099990848 .38320924 .1269989 .422287 .22200012 .422287 .33799745 .422287 .34298707 .34114076 .34498597 .3121643 .34599305 .30119325 .35798646 .30119325 .3619995 .30119325 .3789978 .30119325 .3789978 .30818177 .3789978 .32714845V.42027284C.3789978 .43728639 .3789978 .44628907 .36499024 .44628907 .3600006 .44628907 .35798646 .44628907 .34498597 .4342804 .34298707 .43328858 .33299256 .4242859 .32699586 .419281 .29699708 .4402771 .25898744 .44628907 .22200012 .44628907 .07899475 .44628907 .04499817 .3711853 .04499817 .32115174 .04499817 .2892151 .05899048 .2632599 .08299255 .24330139 .12098694 .21035767 .15899658 .20336914 .22099304 .1933899 .2709961 .18440247 .35198976 .17044068 .35198976 .103515628 .35198976 .06437683 .32499696 .018234253 .22898865 .018234253 .1329956 .018234253 .09799194 .08143616 .07998657 .1494751 .07699585 .16244507 .07598877 .16644287 .06199646 .16644287 .04499817 .16644287 .04499817 .15945435 .04499817 .13949585V.016220093C.04499817-.00077819827 .04499817-.009765625 .05899048-.009765625 .067993167-.009765625 .08699036 .011230469 .10699463 .03327942 .15098572-.0077667238 .20498657-.009765625 .22898865-.009765625 .35899354-.009765625 .40699769 .06036377 .40699769 .1315155Z"/>
<path id="font_3_50" d="M.46798707 .12036133C.46798707 .12435913 .46598817 .13438416 .45098878 .13438416 .43798829 .13438416 .43598939 .12837219 .43299867 .11836243 .4019928 .037246705 .32598878 .022232056 .2899933 .022232056 .24299622 .022232056 .19799805 .043258668 .16799927 .08131409 .1309967 .12837219 .12998963 .18945313 .12998963 .22851563H.43998719C.46099855 .22851563 .46798707 .22851563 .46798707 .25050355 .46798707 .33839417 .4189911 .44628907 .269989 .44628907 .13899231 .44628907 .038986207 .34239198 .038986207 .21949768 .038986207 .092315677 .1499939-.009765625 .2829895-.009765625 .41799928-.009765625 .46798707 .09832764 .46798707 .12036133M.397995 .25450135H.1309967C.14199829 .39530946 .23199463 .41827394 .269989 .41827394 .3929901 .41827394 .39698792 .27947999 .397995 .25450135Z"/>
</defs>
<use data-text="P" xlink:href="#font_1_1" transform="matrix(9.963397,0,0,-9.963197,60.06552,29.95832)"/>
<use data-text="(" xlink:href="#font_2_1" transform="matrix(9.963397,0,0,-9.963197,67.846149,29.95832)"/>
<use data-text="b" xlink:href="#font_1_2" transform="matrix(9.963397,0,0,-9.963197,71.72044,29.95832)"/>
<use data-text="+" xlink:href="#font_2_3" transform="matrix(9.963397,0,0,-9.963197,78.20996,29.95832)"/>
<use data-text="2" xlink:href="#font_2_5" transform="matrix(9.963397,0,0,-9.963197,88.16341,29.95832)"/>
<use data-text=")" xlink:href="#font_2_2" transform="matrix(9.963397,0,0,-9.963197,93.145099,29.95832)"/>
<use data-text="P" xlink:href="#font_1_1" transform="matrix(9.963397,0,0,-9.963197,60.06552,65.15543)"/>
<use data-text="(" xlink:href="#font_2_1" transform="matrix(9.963397,0,0,-9.963197,67.846149,65.15543)"/>
<use data-text="b" xlink:href="#font_1_2" transform="matrix(9.963397,0,0,-9.963197,71.72044,65.15543)"/>
<use data-text="+" xlink:href="#font_2_3" transform="matrix(9.963397,0,0,-9.963197,78.20996,65.15543)"/>
<use data-text="1" xlink:href="#font_2_4" transform="matrix(9.963397,0,0,-9.963197,88.16341,65.15543)"/>
<use data-text=")" xlink:href="#font_2_2" transform="matrix(9.963397,0,0,-9.963197,93.145099,65.15543)"/>
<use data-text="P" xlink:href="#font_1_1" transform="matrix(9.963397,0,0,-9.963197,68.64522,100.35254)"/>
<use data-text="(" xlink:href="#font_2_1" transform="matrix(9.963397,0,0,-9.963197,76.42584,100.35254)"/>
<use data-text="b" xlink:href="#font_1_2" transform="matrix(9.963397,0,0,-9.963197,80.30014,100.35254)"/>
<use data-text=")" xlink:href="#font_2_2" transform="matrix(9.963397,0,0,-9.963197,84.57649,100.35254)"/>
<path transform="matrix(1.00008,0,0,-1.00006,60.638566,62.663278)" stroke-width=".39848" stroke-linecap="butt" stroke-dasharray=".39848,1.99255" stroke-miterlimit="10" stroke-linejoin="miter" fill="none" stroke="#000000" d="M17.90804 44.02603V61.56055"/>
<path transform="matrix(1.00008,0,0,-1.00006,60.638566,62.663278)" stroke-width=".39848" stroke-linecap="butt" stroke-miterlimit="10" stroke-linejoin="miter" fill="none" stroke="#000000" d="M17.90804 8.8305V25.96654"/>
<path transform="matrix(0,-1.00006,-1.00008,-0,78.548038,36.495939)" stroke-width=".39848" stroke-linecap="round" stroke-linejoin="round" fill="none" stroke="#000000" d="M-2.07213 2.39091C-1.69356 .95633-.84995 .27893 0 0-.84995-.27893-1.69356-.95633-2.07213-2.39091"/>
<use data-text="c" xlink:href="#font_3_43" transform="matrix(6.974358,0,0,-6.9742186,32.84134,46.808328)"/>
<use data-text="l" xlink:href="#font_3_72" transform="matrix(6.974358,0,0,-6.9742186,36.384325,46.808328)"/>
<use data-text="i" xlink:href="#font_3_66" transform="matrix(6.974358,0,0,-6.9742186,38.63704,46.808328)"/>
<use data-text="m" xlink:href="#font_3_75" transform="matrix(6.974358,0,0,-6.9742186,40.88974,46.808328)"/>
<use data-text="b" xlink:href="#font_3_35" transform="matrix(6.974358,0,0,-6.9742186,47.229448,46.808328)"/>
<use data-text="u" xlink:href="#font_3_109" transform="matrix(6.974358,0,0,-6.9742186,54.30841,46.808328)"/>
<use data-text="p" xlink:href="#font_3_84" transform="matrix(6.974358,0,0,-6.9742186,58.70923,46.808328)"/>
<use data-text="v" xlink:href="#font_3_112" transform="matrix(6.974358,0,0,-6.9742186,65.795169,46.808328)"/>
<use data-text="i" xlink:href="#font_3_66" transform="matrix(6.974358,0,0,-6.9742186,69.97978,46.808328)"/>
<use data-text="a" xlink:href="#font_3_28" transform="matrix(6.974358,0,0,-6.9742186,72.2325,46.808328)"/>
<use data-text="P" xlink:href="#font_4_1" transform="matrix(6.974358,0,0,-6.9742186,80.89418,46.808328)"/>
<use data-text="(" xlink:href="#font_5_1" transform="matrix(6.974358,0,0,-6.9742186,87.03967,46.808328)"/>
<use data-text="b" xlink:href="#font_4_2" transform="matrix(6.974358,0,0,-6.9742186,90.15294,46.808328)"/>
<use data-text="+" xlink:href="#font_5_3" transform="matrix(6.974358,0,0,-6.9742186,93.65721,46.808328)"/>
<use data-text="1" xlink:href="#font_5_4" transform="matrix(6.974358,0,0,-6.9742186,99.77373,46.808328)"/>
<use data-text=")" xlink:href="#font_5_2" transform="matrix(6.974358,0,0,-6.9742186,103.74214,46.808328)"/>
<use data-text="=" xlink:href="#font_5_6" transform="matrix(6.974358,0,0,-6.9742186,109.11937,46.808328)"/>
<use data-text="&#x21d2;" xlink:href="#font_6_1" transform="matrix(6.974358,0,0,-6.9742186,113.881839,46.808328)"/>
<use data-text="P" xlink:href="#font_4_1" transform="matrix(6.974358,0,0,-6.9742186,124.09366,46.808328)"/>
<use data-text="(" xlink:href="#font_5_1" transform="matrix(6.974358,0,0,-6.9742186,130.23815,46.808328)"/>
<use data-text="b" xlink:href="#font_4_2" transform="matrix(6.974358,0,0,-6.9742186,133.35239,46.808328)"/>
<use data-text="+" xlink:href="#font_5_3" transform="matrix(6.974358,0,0,-6.9742186,136.85569,46.808328)"/>
<use data-text="2" xlink:href="#font_5_5" transform="matrix(6.974358,0,0,-6.9742186,142.9722,46.808328)"/>
<use data-text=")" xlink:href="#font_5_2" transform="matrix(6.974358,0,0,-6.9742186,146.9406,46.808328)"/>
<path transform="matrix(1.00008,0,0,-1.00006,60.638566,62.663278)" stroke-width=".39848" stroke-linecap="butt" stroke-miterlimit="10" stroke-linejoin="miter" fill="none" stroke="#000000" d="M17.90804-26.365V-9.22897"/>
<path transform="matrix(0,-1.00006,-1.00008,-0,78.548038,71.69356)" stroke-width=".39848" stroke-linecap="round" stroke-linejoin="round" fill="none" stroke="#000000" d="M-2.07213 2.39091C-1.69356 .95633-.84995 .27893 0 0-.84995-.27893-1.69356-.95633-2.07213-2.39091"/>
<use data-text="c" xlink:href="#font_3_43" transform="matrix(6.974358,0,0,-6.9742186,32.84134,82.00543)"/>
<use data-text="l" xlink:href="#font_3_72" transform="matrix(6.974358,0,0,-6.9742186,36.384325,82.00543)"/>
<use data-text="i" xlink:href="#font_3_66" transform="matrix(6.974358,0,0,-6.9742186,38.63704,82.00543)"/>
<use data-text="m" xlink:href="#font_3_75" transform="matrix(6.974358,0,0,-6.9742186,40.88974,82.00543)"/>
<use data-text="b" xlink:href="#font_3_35" transform="matrix(6.974358,0,0,-6.9742186,47.229448,82.00543)"/>
<use data-text="u" xlink:href="#font_3_109" transform="matrix(6.974358,0,0,-6.9742186,54.30841,82.00543)"/>
<use data-text="p" xlink:href="#font_3_84" transform="matrix(6.974358,0,0,-6.9742186,58.70923,82.00543)"/>
<use data-text="v" xlink:href="#font_3_112" transform="matrix(6.974358,0,0,-6.9742186,65.795169,82.00543)"/>
<use data-text="i" xlink:href="#font_3_66" transform="matrix(6.974358,0,0,-6.9742186,69.97978,82.00543)"/>
<use data-text="a" xlink:href="#font_3_28" transform="matrix(6.974358,0,0,-6.9742186,72.2325,82.00543)"/>
<use data-text="P" xlink:href="#font_4_1" transform="matrix(6.974358,0,0,-6.9742186,80.89418,82.00543)"/>
<use data-text="(" xlink:href="#font_5_1" transform="matrix(6.974358,0,0,-6.9742186,87.03967,82.00543)"/>
<use data-text="b" xlink:href="#font_4_2" transform="matrix(6.974358,0,0,-6.9742186,90.15294,82.00543)"/>
<use data-text=")" xlink:href="#font_5_2" transform="matrix(6.974358,0,0,-6.9742186,93.65721,82.00543)"/>
<use data-text="=" xlink:href="#font_5_6" transform="matrix(6.974358,0,0,-6.9742186,99.03444,82.00543)"/>
<use data-text="&#x21d2;" xlink:href="#font_6_1" transform="matrix(6.974358,0,0,-6.9742186,103.79402,82.00543)"/>
<use data-text="P" xlink:href="#font_4_1" transform="matrix(6.974358,0,0,-6.9742186,114.00485,82.00543)"/>
<use data-text="(" xlink:href="#font_5_1" transform="matrix(6.974358,0,0,-6.9742186,120.150348,82.00543)"/>
<use data-text="b" xlink:href="#font_4_2" transform="matrix(6.974358,0,0,-6.9742186,123.263599,82.00543)"/>
<use data-text="+" xlink:href="#font_5_3" transform="matrix(6.974358,0,0,-6.9742186,126.76788,82.00543)"/>
<use data-text="1" xlink:href="#font_5_4" transform="matrix(6.974358,0,0,-6.9742186,132.8844,82.00543)"/>
<use data-text=")" xlink:href="#font_5_2" transform="matrix(6.974358,0,0,-6.9742186,136.85282,82.00543)"/>
<path transform="matrix(1.00008,0,0,-1.00006,60.638566,62.663278)" stroke-width=".39848" stroke-linecap="butt" stroke-miterlimit="10" stroke-linejoin="miter" fill="none" stroke="#000000" d="M-32.15175-61.56055 3.16006-42.96045"/>
<path transform="matrix(.8847908,-.46602796,-.46603728,-.8847731,63.97515,105.53348)" stroke-width=".39848" stroke-linecap="round" stroke-linejoin="round" fill="none" stroke="#000000" d="M-2.07213 2.39091C-1.69356 .95633-.84995 .27893 0 0-.84995-.27893-1.69356-.95633-2.07213-2.39091"/>
<use data-text="c" xlink:href="#font_3_43" transform="matrix(6.974358,0,0,-6.9742186,1.0437927,112.41826)"/>
<use data-text="l" xlink:href="#font_3_72" transform="matrix(6.974358,0,0,-6.9742186,4.5867769,112.41826)"/>
<use data-text="i" xlink:href="#font_3_66" transform="matrix(6.974358,0,0,-6.9742186,6.839493,112.41826)"/>
<use data-text="m" xlink:href="#font_3_75" transform="matrix(6.974358,0,0,-6.9742186,9.092194,112.41826)"/>
<use data-text="b" xlink:href="#font_3_35" transform="matrix(6.974358,0,0,-6.9742186,15.4319,112.41826)"/>
<use data-text="o" xlink:href="#font_3_81" transform="matrix(6.974358,0,0,-6.9742186,22.510865,112.41826)"/>
<use data-text="n" xlink:href="#font_3_77" transform="matrix(6.974358,0,0,-6.9742186,26.479279,112.41826)"/>
<use data-text="v" xlink:href="#font_3_112" transform="matrix(6.974358,0,0,-6.9742186,33.565217,112.41826)"/>
<use data-text="i" xlink:href="#font_3_66" transform="matrix(6.974358,0,0,-6.9742186,37.749834,112.41826)"/>
<use data-text="a" xlink:href="#font_3_28" transform="matrix(6.974358,0,0,-6.9742186,40.002534,112.41826)"/>
<use data-text="b" xlink:href="#font_3_35" transform="matrix(6.974358,0,0,-6.9742186,48.66461,122.020839)"/>
<use data-text="a" xlink:href="#font_3_28" transform="matrix(6.974358,0,0,-6.9742186,53.06543,122.020839)"/>
<use data-text="s" xlink:href="#font_3_98" transform="matrix(6.974358,0,0,-6.9742186,57.033845,122.020839)"/>
<use data-text="e" xlink:href="#font_3_50" transform="matrix(6.974358,0,0,-6.9742186,60.193239,122.020839)"/>
<use data-text="c" xlink:href="#font_3_43" transform="matrix(6.974358,0,0,-6.9742186,66.421329,122.020839)"/>
<use data-text="a" xlink:href="#font_3_28" transform="matrix(6.974358,0,0,-6.9742186,69.96431,122.020839)"/>
<use data-text="s" xlink:href="#font_3_98" transform="matrix(6.974358,0,0,-6.9742186,73.932727,122.020839)"/>
<use data-text="e" xlink:href="#font_3_50" transform="matrix(6.974358,0,0,-6.9742186,77.0921,122.020839)"/>
</svg>
